<svg aria-roledescription="er" role="graphics-document document" viewBox="0 0 948.34375 1244" style="max-width: 948.344px; background-color: white;" xmlns:xlink="http://www.w3.org/1999/xlink" xmlns="http://www.w3.org/2000/svg" width="100%" id="my-svg"><style>#my-svg{font-family:"trebuchet ms",verdana,arial,sans-serif;font-size:16px;fill:#000000;}#my-svg .error-icon{fill:#552222;}#my-svg .error-text{fill:#552222;stroke:#552222;}#my-svg .edge-thickness-normal{stroke-width:2px;}#my-svg .edge-thickness-thick{stroke-width:3.5px;}#my-svg .edge-pattern-solid{stroke-dasharray:0;}#my-svg .edge-pattern-dashed{stroke-dasharray:3;}#my-svg .edge-pattern-dotted{stroke-dasharray:2;}#my-svg .marker{fill:#000000;stroke:#000000;}#my-svg .marker.cross{stroke:#000000;}#my-svg svg{font-family:"trebuchet ms",verdana,arial,sans-serif;font-size:16px;}#my-svg .entityBox{fill:#cde498;stroke:#13540c;}#my-svg .attributeBoxOdd{fill:#ffffff;stroke:#13540c;}#my-svg .attributeBoxEven{fill:#f2f2f2;stroke:#13540c;}#my-svg .relationshipLabelBox{fill:hsl(78.1578947368, 58.4615384615%, 84.5098039216%);opacity:0.7;background-color:hsl(78.1578947368, 58.4615384615%, 84.5098039216%);}#my-svg .relationshipLabelBox rect{opacity:0.5;}#my-svg .relationshipLine{stroke:#000000;}#my-svg .entityTitleText{text-anchor:middle;font-size:18px;fill:#000000;}#my-svg #MD_PARENT_START{fill:#f5f5f5!important;stroke:#000000!important;stroke-width:1;}#my-svg #MD_PARENT_END{fill:#f5f5f5!important;stroke:#000000!important;stroke-width:1;}#my-svg :root{--mermaid-font-family:"trebuchet ms",verdana,arial,sans-serif;}</style><g/><defs><marker orient="auto" markerHeight="240" markerWidth="190" refY="7" refX="0" id="MD_PARENT_START"><path d="M 18,7 L9,13 L1,7 L9,1 Z"/></marker></defs><defs><marker orient="auto" markerHeight="28" markerWidth="20" refY="7" refX="19" id="MD_PARENT_END"><path d="M 18,7 L9,13 L1,7 L9,1 Z"/></marker></defs><defs><marker orient="auto" markerHeight="18" markerWidth="18" refY="9" refX="0" id="ONLY_ONE_START"><path d="M9,0 L9,18 M15,0 L15,18" fill="none" stroke="gray"/></marker></defs><defs><marker orient="auto" markerHeight="18" markerWidth="18" refY="9" refX="18" id="ONLY_ONE_END"><path d="M3,0 L3,18 M9,0 L9,18" fill="none" stroke="gray"/></marker></defs><defs><marker orient="auto" markerHeight="18" markerWidth="30" refY="9" refX="0" id="ZERO_OR_ONE_START"><circle r="6" cy="9" cx="21" fill="white" stroke="gray"/><path d="M9,0 L9,18" fill="none" stroke="gray"/></marker></defs><defs><marker orient="auto" markerHeight="18" markerWidth="30" refY="9" refX="30" id="ZERO_OR_ONE_END"><circle r="6" cy="9" cx="9" fill="white" stroke="gray"/><path d="M21,0 L21,18" fill="none" stroke="gray"/></marker></defs><defs><marker orient="auto" markerHeight="36" markerWidth="45" refY="18" refX="18" id="ONE_OR_MORE_START"><path d="M0,18 Q 18,0 36,18 Q 18,36 0,18 M42,9 L42,27" fill="none" stroke="gray"/></marker></defs><defs><marker orient="auto" markerHeight="36" markerWidth="45" refY="18" refX="27" id="ONE_OR_MORE_END"><path d="M3,9 L3,27 M9,18 Q27,0 45,18 Q27,36 9,18" fill="none" stroke="gray"/></marker></defs><defs><marker orient="auto" markerHeight="36" markerWidth="57" refY="18" refX="18" id="ZERO_OR_MORE_START"><circle r="6" cy="18" cx="48" fill="white" stroke="gray"/><path d="M0,18 Q18,0 36,18 Q18,36 0,18" fill="none" stroke="gray"/></marker></defs><defs><marker orient="auto" markerHeight="36" markerWidth="57" refY="18" refX="39" id="ZERO_OR_MORE_END"><circle r="6" cy="18" cx="9" fill="white" stroke="gray"/><path d="M21,18 Q39,0 57,18 Q39,36 21,18" fill="none" stroke="gray"/></marker></defs><path style="stroke: gray; fill: none;" marker-start="url(#ZERO_OR_MORE_START)" marker-end="url(#ZERO_OR_MORE_END)" d="M585.0592191601049,110.5L580.6847659667541,118.83333333333333C576.3103127734033,127.16666666666667,567.5614063867016,143.83333333333334,567.1085218208018,160.5C566.655637254902,177.16666666666666,574.4987745098039,193.83333333333334,578.4203431372549,202.16666666666666L582.3419117647059,210.5" class="er relationshipLine"/><path style="stroke: gray; fill: none;" marker-start="url(#ZERO_OR_ONE_START)" marker-end="url(#ONLY_ONE_END)" d="M582.3419117647059,323L578.4203431372549,331.3333333333333C574.4987745098039,339.6666666666667,566.655637254902,356.3333333333333,565.0078294278147,373C563.3600216007276,389.6666666666667,567.9075432014553,406.3333333333333,570.1813040018191,414.6666666666667L572.4550648021828,423" class="er relationshipLine"/><path style="stroke: gray; fill: none;" marker-start="url(#ZERO_OR_ONE_START)" marker-end="url(#ONLY_ONE_END)" d="M635.2830882352941,210.5L639.2046568627451,202.16666666666666C643.1262254901961,193.83333333333334,650.969362745098,177.16666666666666,650.5164781791982,160.5C650.0635936132984,143.83333333333334,641.3146872265967,127.16666666666667,636.9402340332459,118.83333333333333L632.5657808398951,110.5" class="er relationshipLine"/><path style="stroke: gray; fill: none;" marker-start="url(#ZERO_OR_ONE_START)" marker-end="url(#ONLY_ONE_END)" d="M520.35546875,586.4291701211619L445.5787760416667,611.9409751009682C370.8020833333333,637.4527800807746,221.24869791666666,688.4763900403873,146.47200520833334,729.6548616868604C71.6953125,770.8333333333334,71.6953125,802.1666666666666,71.6953125,817.8333333333334L71.6953125,833.5" class="er relationshipLine"/><path style="stroke: gray; fill: none;" marker-start="url(#ZERO_OR_ONE_START)" marker-end="url(#ONLY_ONE_END)" d="M520.35546875,614.4880813708704L488.708984375,635.3234011423921C457.0625,656.1587209139136,393.76953125,697.8293604569568,362.123046875,736.1646802284785C330.4765625,774.5,330.4765625,809.5,330.4765625,827L330.4765625,844.5" class="er relationshipLine"/><path style="stroke: gray; fill: none;" marker-start="url(#ZERO_OR_ONE_START)" marker-end="url(#ONLY_ONE_END)" d="M608.8125,689.5L608.8125,697.8333333333334C608.8125,706.1666666666666,608.8125,722.8333333333334,608.8125,739.5C608.8125,756.1666666666666,608.8125,772.8333333333334,608.8125,781.1666666666666L608.8125,789.5" class="er relationshipLine"/><path style="stroke: gray; fill: none;" marker-start="url(#ZERO_OR_MORE_START)" marker-end="url(#ZERO_OR_MORE_END)" d="M645.1699351978172,423L647.4436959981809,414.6666666666667C649.7174567985447,406.3333333333333,654.2649783992724,389.6666666666667,652.6171705721853,373C650.969362745098,356.3333333333333,643.1262254901961,339.6666666666667,639.2046568627451,331.3333333333333L635.2830882352941,323" class="er relationshipLine"/><path style="stroke: gray; fill: none;" marker-start="url(#ZERO_OR_MORE_START)" marker-end="url(#ZERO_OR_MORE_END)" d="M697.26953125,650.113294503506L711.3092447916666,665.0110787529217C725.3489583333334,679.9088630023374,753.4283854166666,709.7044315011686,774.1318359375,738.3522157505844C794.8352864583334,767,808.1627604166666,794.5,814.8264973958334,808.25L821.490234375,822" class="er relationshipLine"/><path style="stroke: gray; fill: none;" marker-start="url(#ZERO_OR_MORE_START)" marker-end="url(#ZERO_OR_MORE_END)" d="M882.8811633795309,1089.5L886.434823649609,1081.1666666666667C889.9884839196872,1072.8333333333333,897.0958044598436,1056.1666666666667,896.0661313965885,1034.0833333333333C895.0364583333334,1012,885.8697916666666,984.5,881.2864583333334,970.75L876.703125,957" class="er relationshipLine"/><path style="stroke: gray; fill: none;" marker-start="url(#ZERO_OR_ONE_START)" marker-end="url(#ZERO_OR_ONE_END)" d="M876.703125,822L881.2864583333334,808.25C885.8697916666666,794.5,895.0364583333334,767,865.130859375,731.854274111787C835.2252604166666,696.708548223574,766.2473958333334,653.9170964471481,731.7584635416666,632.521370558935L697.26953125,611.1256446707221" class="er relationshipLine"/><path style="stroke: gray; fill: none;" marker-start="url(#ZERO_OR_ONE_START)" marker-end="url(#ONLY_ONE_END)" d="M831.703125,957L827.1197916666666,970.75C822.5364583333334,984.5,813.3697916666666,1012,812.3401186034115,1034.0833333333333C811.3104455401564,1056.1666666666667,818.4177660803128,1072.8333333333333,821.971426350391,1081.1666666666667L825.5250866204691,1089.5" class="er relationshipLine"/><g transform="translate(20,833.5 )" id="entity-UserRole-348851bc-4e3e-5e0e-a5b3-6fde704fd893"><rect height="112" width="103.390625" y="0" x="0" class="er entityBox"/><text style="dominant-baseline: middle; text-anchor: middle; font-size: 12px;" transform="translate(51.6953125,12)" y="0" x="0" id="text-entity-UserRole-348851bc-4e3e-5e0e-a5b3-6fde704fd893" class="er entityLabel">UserRole</text><rect height="22" width="51.6953125" y="24" x="0" class="er attributeBoxOdd"/><text style="dominant-baseline: middle; font-size: 10.2px;" transform="translate(5,35)" y="0" x="0" id="text-entity-UserRole-348851bc-4e3e-5e0e-a5b3-6fde704fd893-attr-1-type" class="er entityLabel">ADMIN</text><rect height="22" width="51.6953125" y="24" x="51.6953125" class="er attributeBoxOdd"/><text style="dominant-baseline: middle; font-size: 10.2px;" transform="translate(56.6953125,35)" y="0" x="0" id="text-entity-UserRole-348851bc-4e3e-5e0e-a5b3-6fde704fd893-attr-1-name" class="er entityLabel">ADMIN</text><rect height="22" width="51.6953125" y="46" x="0" class="er attributeBoxEven"/><text style="dominant-baseline: middle; font-size: 10.2px;" transform="translate(5,57)" y="0" x="0" id="text-entity-UserRole-348851bc-4e3e-5e0e-a5b3-6fde704fd893-attr-2-type" class="er entityLabel">MOD</text><rect height="22" width="51.6953125" y="46" x="51.6953125" class="er attributeBoxEven"/><text style="dominant-baseline: middle; font-size: 10.2px;" transform="translate(56.6953125,57)" y="0" x="0" id="text-entity-UserRole-348851bc-4e3e-5e0e-a5b3-6fde704fd893-attr-2-name" class="er entityLabel">MOD</text><rect height="22" width="51.6953125" y="68" x="0" class="er attributeBoxOdd"/><text style="dominant-baseline: middle; font-size: 10.2px;" transform="translate(5,79)" y="0" x="0" id="text-entity-UserRole-348851bc-4e3e-5e0e-a5b3-6fde704fd893-attr-3-type" class="er entityLabel">USER</text><rect height="22" width="51.6953125" y="68" x="51.6953125" class="er attributeBoxOdd"/><text style="dominant-baseline: middle; font-size: 10.2px;" transform="translate(56.6953125,79)" y="0" x="0" id="text-entity-UserRole-348851bc-4e3e-5e0e-a5b3-6fde704fd893-attr-3-name" class="er entityLabel">USER</text><rect height="22" width="51.6953125" y="90" x="0" class="er attributeBoxEven"/><text style="dominant-baseline: middle; font-size: 10.2px;" transform="translate(5,101)" y="0" x="0" id="text-entity-UserRole-348851bc-4e3e-5e0e-a5b3-6fde704fd893-attr-4-type" class="er entityLabel">SPONSOR</text><rect height="22" width="51.6953125" y="90" x="51.6953125" class="er attributeBoxEven"/><text style="dominant-baseline: middle; font-size: 10.2px;" transform="translate(56.6953125,101)" y="0" x="0" id="text-entity-UserRole-348851bc-4e3e-5e0e-a5b3-6fde704fd893-attr-4-name" class="er entityLabel">SPONSOR</text></g><g transform="translate(223.390625,844.5 )" id="entity-Gender-2af7dcd7-ae74-587e-9aa6-b032bcfcd51b"><rect height="90" width="214.171875" y="0" x="0" class="er entityBox"/><text style="dominant-baseline: middle; text-anchor: middle; font-size: 12px;" transform="translate(107.0859375,12)" y="0" x="0" id="text-entity-Gender-2af7dcd7-ae74-587e-9aa6-b032bcfcd51b" class="er entityLabel">Gender</text><rect height="22" width="107.0859375" y="24" x="0" class="er attributeBoxOdd"/><text style="dominant-baseline: middle; font-size: 10.2px;" transform="translate(5,35)" y="0" x="0" id="text-entity-Gender-2af7dcd7-ae74-587e-9aa6-b032bcfcd51b-attr-1-type" class="er entityLabel">MALE</text><rect height="22" width="107.0859375" y="24" x="107.0859375" class="er attributeBoxOdd"/><text style="dominant-baseline: middle; font-size: 10.2px;" transform="translate(112.0859375,35)" y="0" x="0" id="text-entity-Gender-2af7dcd7-ae74-587e-9aa6-b032bcfcd51b-attr-1-name" class="er entityLabel">MALE</text><rect height="22" width="107.0859375" y="46" x="0" class="er attributeBoxEven"/><text style="dominant-baseline: middle; font-size: 10.2px;" transform="translate(5,57)" y="0" x="0" id="text-entity-Gender-2af7dcd7-ae74-587e-9aa6-b032bcfcd51b-attr-2-type" class="er entityLabel">FEMALE</text><rect height="22" width="107.0859375" y="46" x="107.0859375" class="er attributeBoxEven"/><text style="dominant-baseline: middle; font-size: 10.2px;" transform="translate(112.0859375,57)" y="0" x="0" id="text-entity-Gender-2af7dcd7-ae74-587e-9aa6-b032bcfcd51b-attr-2-name" class="er entityLabel">FEMALE</text><rect height="22" width="107.0859375" y="68" x="0" class="er attributeBoxOdd"/><text style="dominant-baseline: middle; font-size: 10.2px;" transform="translate(5,79)" y="0" x="0" id="text-entity-Gender-2af7dcd7-ae74-587e-9aa6-b032bcfcd51b-attr-3-type" class="er entityLabel">PREFER_NOT_TO_SAY</text><rect height="22" width="107.0859375" y="68" x="107.0859375" class="er attributeBoxOdd"/><text style="dominant-baseline: middle; font-size: 10.2px;" transform="translate(112.0859375,79)" y="0" x="0" id="text-entity-Gender-2af7dcd7-ae74-587e-9aa6-b032bcfcd51b-attr-3-name" class="er entityLabel">PREFER_NOT_TO_SAY</text></g><g transform="translate(537.5625,789.5 )" id="entity-BloodType-e7f05c90-2de1-5397-9f15-4fc9bcb52642"><rect height="200" width="142.5" y="0" x="0" class="er entityBox"/><text style="dominant-baseline: middle; text-anchor: middle; font-size: 12px;" transform="translate(71.25,12)" y="0" x="0" id="text-entity-BloodType-e7f05c90-2de1-5397-9f15-4fc9bcb52642" class="er entityLabel">BloodType</text><rect height="22" width="71.25" y="24" x="0" class="er attributeBoxOdd"/><text style="dominant-baseline: middle; font-size: 10.2px;" transform="translate(5,35)" y="0" x="0" id="text-entity-BloodType-e7f05c90-2de1-5397-9f15-4fc9bcb52642-attr-1-type" class="er entityLabel">A_POSITIVE</text><rect height="22" width="71.25" y="24" x="71.25" class="er attributeBoxOdd"/><text style="dominant-baseline: middle; font-size: 10.2px;" transform="translate(76.25,35)" y="0" x="0" id="text-entity-BloodType-e7f05c90-2de1-5397-9f15-4fc9bcb52642-attr-1-name" class="er entityLabel">A_POSITIVE</text><rect height="22" width="71.25" y="46" x="0" class="er attributeBoxEven"/><text style="dominant-baseline: middle; font-size: 10.2px;" transform="translate(5,57)" y="0" x="0" id="text-entity-BloodType-e7f05c90-2de1-5397-9f15-4fc9bcb52642-attr-2-type" class="er entityLabel">A_NEGATIVE</text><rect height="22" width="71.25" y="46" x="71.25" class="er attributeBoxEven"/><text style="dominant-baseline: middle; font-size: 10.2px;" transform="translate(76.25,57)" y="0" x="0" id="text-entity-BloodType-e7f05c90-2de1-5397-9f15-4fc9bcb52642-attr-2-name" class="er entityLabel">A_NEGATIVE</text><rect height="22" width="71.25" y="68" x="0" class="er attributeBoxOdd"/><text style="dominant-baseline: middle; font-size: 10.2px;" transform="translate(5,79)" y="0" x="0" id="text-entity-BloodType-e7f05c90-2de1-5397-9f15-4fc9bcb52642-attr-3-type" class="er entityLabel">B_POSITIVE</text><rect height="22" width="71.25" y="68" x="71.25" class="er attributeBoxOdd"/><text style="dominant-baseline: middle; font-size: 10.2px;" transform="translate(76.25,79)" y="0" x="0" id="text-entity-BloodType-e7f05c90-2de1-5397-9f15-4fc9bcb52642-attr-3-name" class="er entityLabel">B_POSITIVE</text><rect height="22" width="71.25" y="90" x="0" class="er attributeBoxEven"/><text style="dominant-baseline: middle; font-size: 10.2px;" transform="translate(5,101)" y="0" x="0" id="text-entity-BloodType-e7f05c90-2de1-5397-9f15-4fc9bcb52642-attr-4-type" class="er entityLabel">B_NEGATIVE</text><rect height="22" width="71.25" y="90" x="71.25" class="er attributeBoxEven"/><text style="dominant-baseline: middle; font-size: 10.2px;" transform="translate(76.25,101)" y="0" x="0" id="text-entity-BloodType-e7f05c90-2de1-5397-9f15-4fc9bcb52642-attr-4-name" class="er entityLabel">B_NEGATIVE</text><rect height="22" width="71.25" y="112" x="0" class="er attributeBoxOdd"/><text style="dominant-baseline: middle; font-size: 10.2px;" transform="translate(5,123)" y="0" x="0" id="text-entity-BloodType-e7f05c90-2de1-5397-9f15-4fc9bcb52642-attr-5-type" class="er entityLabel">AB_POSITIVE</text><rect height="22" width="71.25" y="112" x="71.25" class="er attributeBoxOdd"/><text style="dominant-baseline: middle; font-size: 10.2px;" transform="translate(76.25,123)" y="0" x="0" id="text-entity-BloodType-e7f05c90-2de1-5397-9f15-4fc9bcb52642-attr-5-name" class="er entityLabel">AB_POSITIVE</text><rect height="22" width="71.25" y="134" x="0" class="er attributeBoxEven"/><text style="dominant-baseline: middle; font-size: 10.2px;" transform="translate(5,145)" y="0" x="0" id="text-entity-BloodType-e7f05c90-2de1-5397-9f15-4fc9bcb52642-attr-6-type" class="er entityLabel">AB_NEGATIVE</text><rect height="22" width="71.25" y="134" x="71.25" class="er attributeBoxEven"/><text style="dominant-baseline: middle; font-size: 10.2px;" transform="translate(76.25,145)" y="0" x="0" id="text-entity-BloodType-e7f05c90-2de1-5397-9f15-4fc9bcb52642-attr-6-name" class="er entityLabel">AB_NEGATIVE</text><rect height="22" width="71.25" y="156" x="0" class="er attributeBoxOdd"/><text style="dominant-baseline: middle; font-size: 10.2px;" transform="translate(5,167)" y="0" x="0" id="text-entity-BloodType-e7f05c90-2de1-5397-9f15-4fc9bcb52642-attr-7-type" class="er entityLabel">O_POSITIVE</text><rect height="22" width="71.25" y="156" x="71.25" class="er attributeBoxOdd"/><text style="dominant-baseline: middle; font-size: 10.2px;" transform="translate(76.25,167)" y="0" x="0" id="text-entity-BloodType-e7f05c90-2de1-5397-9f15-4fc9bcb52642-attr-7-name" class="er entityLabel">O_POSITIVE</text><rect height="22" width="71.25" y="178" x="0" class="er attributeBoxEven"/><text style="dominant-baseline: middle; font-size: 10.2px;" transform="translate(5,189)" y="0" x="0" id="text-entity-BloodType-e7f05c90-2de1-5397-9f15-4fc9bcb52642-attr-8-type" class="er entityLabel">UKNOWN</text><rect height="22" width="71.25" y="178" x="71.25" class="er attributeBoxEven"/><text style="dominant-baseline: middle; font-size: 10.2px;" transform="translate(76.25,189)" y="0" x="0" id="text-entity-BloodType-e7f05c90-2de1-5397-9f15-4fc9bcb52642-attr-8-name" class="er entityLabel">UKNOWN</text></g><g transform="translate(557.04296875,20 )" id="entity-Hemocenter-ce304965-66e1-556b-b4d2-0effa7072bd0"><rect height="90.5" width="103.5390625" y="0" x="0" class="er entityBox"/><text style="dominant-baseline: middle; text-anchor: middle; font-size: 12px;" transform="translate(51.76953125,12)" y="0" x="0" id="text-entity-Hemocenter-ce304965-66e1-556b-b4d2-0effa7072bd0" class="er entityLabel">Hemocenter</text><rect height="22.5" width="36.5234375" y="24" x="0" class="er attributeBoxOdd"/><text style="dominant-baseline: middle; font-size: 10.2px;" transform="translate(5,35.25)" y="0" x="0" id="text-entity-Hemocenter-ce304965-66e1-556b-b4d2-0effa7072bd0-attr-1-type" class="er entityLabel">String</text><rect height="22.5" width="44.515625" y="24" x="36.5234375" class="er attributeBoxOdd"/><text style="dominant-baseline: middle; font-size: 10.2px;" transform="translate(41.5234375,35.25)" y="0" x="0" id="text-entity-Hemocenter-ce304965-66e1-556b-b4d2-0effa7072bd0-attr-1-name" class="er entityLabel">id</text><rect height="22.5" width="22.5" y="24" x="81.0390625" class="er attributeBoxOdd"/><text style="dominant-baseline: middle; font-size: 10.2px;" transform="translate(86.0390625,35.25)" y="0" x="0" id="text-entity-Hemocenter-ce304965-66e1-556b-b4d2-0effa7072bd0-attr-1-comment" class="er entityLabel">🗝️</text><rect height="22" width="36.5234375" y="46.5" x="0" class="er attributeBoxEven"/><text style="dominant-baseline: middle; font-size: 10.2px;" transform="translate(5,57.5)" y="0" x="0" id="text-entity-Hemocenter-ce304965-66e1-556b-b4d2-0effa7072bd0-attr-2-type" class="er entityLabel">String</text><rect height="22" width="44.515625" y="46.5" x="36.5234375" class="er attributeBoxEven"/><text style="dominant-baseline: middle; font-size: 10.2px;" transform="translate(41.5234375,57.5)" y="0" x="0" id="text-entity-Hemocenter-ce304965-66e1-556b-b4d2-0effa7072bd0-attr-2-name" class="er entityLabel">name</text><rect height="22" width="22.5" y="46.5" x="81.0390625" class="er attributeBoxEven"/><text style="dominant-baseline: middle; font-size: 10.2px;" transform="translate(86.0390625,57.5)" y="0" x="0" id="text-entity-Hemocenter-ce304965-66e1-556b-b4d2-0effa7072bd0-attr-2-comment" class="er entityLabel"/><rect height="22" width="36.5234375" y="68.5" x="0" class="er attributeBoxOdd"/><text style="dominant-baseline: middle; font-size: 10.2px;" transform="translate(5,79.5)" y="0" x="0" id="text-entity-Hemocenter-ce304965-66e1-556b-b4d2-0effa7072bd0-attr-3-type" class="er entityLabel">String</text><rect height="22" width="44.515625" y="68.5" x="36.5234375" class="er attributeBoxOdd"/><text style="dominant-baseline: middle; font-size: 10.2px;" transform="translate(41.5234375,79.5)" y="0" x="0" id="text-entity-Hemocenter-ce304965-66e1-556b-b4d2-0effa7072bd0-attr-3-name" class="er entityLabel">address</text><rect height="22" width="22.5" y="68.5" x="81.0390625" class="er attributeBoxOdd"/><text style="dominant-baseline: middle; font-size: 10.2px;" transform="translate(86.0390625,79.5)" y="0" x="0" id="text-entity-Hemocenter-ce304965-66e1-556b-b4d2-0effa7072bd0-attr-3-comment" class="er entityLabel"/></g><g transform="translate(531.33984375,210.5 )" id="entity-Appointment-3da851f3-d560-5982-a39e-9e2a8ae336e4"><rect height="112.5" width="154.9453125" y="0" x="0" class="er entityBox"/><text style="dominant-baseline: middle; text-anchor: middle; font-size: 12px;" transform="translate(77.47265625,12)" y="0" x="0" id="text-entity-Appointment-3da851f3-d560-5982-a39e-9e2a8ae336e4" class="er entityLabel">Appointment</text><rect height="22.5" width="53.6640625" y="24" x="0" class="er attributeBoxOdd"/><text style="dominant-baseline: middle; font-size: 10.2px;" transform="translate(5,35.25)" y="0" x="0" id="text-entity-Appointment-3da851f3-d560-5982-a39e-9e2a8ae336e4-attr-1-type" class="er entityLabel">String</text><rect height="22.5" width="78.78125" y="24" x="53.6640625" class="er attributeBoxOdd"/><text style="dominant-baseline: middle; font-size: 10.2px;" transform="translate(58.6640625,35.25)" y="0" x="0" id="text-entity-Appointment-3da851f3-d560-5982-a39e-9e2a8ae336e4-attr-1-name" class="er entityLabel">id</text><rect height="22.5" width="22.5" y="24" x="132.4453125" class="er attributeBoxOdd"/><text style="dominant-baseline: middle; font-size: 10.2px;" transform="translate(137.4453125,35.25)" y="0" x="0" id="text-entity-Appointment-3da851f3-d560-5982-a39e-9e2a8ae336e4-attr-1-comment" class="er entityLabel">🗝️</text><rect height="22" width="53.6640625" y="46.5" x="0" class="er attributeBoxEven"/><text style="dominant-baseline: middle; font-size: 10.2px;" transform="translate(5,57.5)" y="0" x="0" id="text-entity-Appointment-3da851f3-d560-5982-a39e-9e2a8ae336e4-attr-2-type" class="er entityLabel">String</text><rect height="22" width="78.78125" y="46.5" x="53.6640625" class="er attributeBoxEven"/><text style="dominant-baseline: middle; font-size: 10.2px;" transform="translate(58.6640625,57.5)" y="0" x="0" id="text-entity-Appointment-3da851f3-d560-5982-a39e-9e2a8ae336e4-attr-2-name" class="er entityLabel">user_id</text><rect height="22" width="22.5" y="46.5" x="132.4453125" class="er attributeBoxEven"/><text style="dominant-baseline: middle; font-size: 10.2px;" transform="translate(137.4453125,57.5)" y="0" x="0" id="text-entity-Appointment-3da851f3-d560-5982-a39e-9e2a8ae336e4-attr-2-comment" class="er entityLabel"/><rect height="22" width="53.6640625" y="68.5" x="0" class="er attributeBoxOdd"/><text style="dominant-baseline: middle; font-size: 10.2px;" transform="translate(5,79.5)" y="0" x="0" id="text-entity-Appointment-3da851f3-d560-5982-a39e-9e2a8ae336e4-attr-3-type" class="er entityLabel">String</text><rect height="22" width="78.78125" y="68.5" x="53.6640625" class="er attributeBoxOdd"/><text style="dominant-baseline: middle; font-size: 10.2px;" transform="translate(58.6640625,79.5)" y="0" x="0" id="text-entity-Appointment-3da851f3-d560-5982-a39e-9e2a8ae336e4-attr-3-name" class="er entityLabel">hemocenter_id</text><rect height="22" width="22.5" y="68.5" x="132.4453125" class="er attributeBoxOdd"/><text style="dominant-baseline: middle; font-size: 10.2px;" transform="translate(137.4453125,79.5)" y="0" x="0" id="text-entity-Appointment-3da851f3-d560-5982-a39e-9e2a8ae336e4-attr-3-comment" class="er entityLabel"/><rect height="22" width="53.6640625" y="90.5" x="0" class="er attributeBoxEven"/><text style="dominant-baseline: middle; font-size: 10.2px;" transform="translate(5,101.5)" y="0" x="0" id="text-entity-Appointment-3da851f3-d560-5982-a39e-9e2a8ae336e4-attr-4-type" class="er entityLabel">DateTime</text><rect height="22" width="78.78125" y="90.5" x="53.6640625" class="er attributeBoxEven"/><text style="dominant-baseline: middle; font-size: 10.2px;" transform="translate(58.6640625,101.5)" y="0" x="0" id="text-entity-Appointment-3da851f3-d560-5982-a39e-9e2a8ae336e4-attr-4-name" class="er entityLabel">date</text><rect height="22" width="22.5" y="90.5" x="132.4453125" class="er attributeBoxEven"/><text style="dominant-baseline: middle; font-size: 10.2px;" transform="translate(137.4453125,101.5)" y="0" x="0" id="text-entity-Appointment-3da851f3-d560-5982-a39e-9e2a8ae336e4-attr-4-comment" class="er entityLabel"/></g><g transform="translate(520.35546875,423 )" id="entity-User-818c511a-4a32-5484-ba70-875d765a9175"><rect height="266.5" width="176.9140625" y="0" x="0" class="er entityBox"/><text style="dominant-baseline: middle; text-anchor: middle; font-size: 12px;" transform="translate(88.45703125,12)" y="0" x="0" id="text-entity-User-818c511a-4a32-5484-ba70-875d765a9175" class="er entityLabel">User</text><rect height="22" width="56.4375" y="24" x="0" class="er attributeBoxOdd"/><text style="dominant-baseline: middle; font-size: 10.2px;" transform="translate(5,35)" y="0" x="0" id="text-entity-User-818c511a-4a32-5484-ba70-875d765a9175-attr-1-type" class="er entityLabel">String</text><rect height="22" width="97.9765625" y="24" x="56.4375" class="er attributeBoxOdd"/><text style="dominant-baseline: middle; font-size: 10.2px;" transform="translate(61.4375,35)" y="0" x="0" id="text-entity-User-818c511a-4a32-5484-ba70-875d765a9175-attr-1-name" class="er entityLabel">id</text><rect height="22" width="22.5" y="24" x="154.4140625" class="er attributeBoxOdd"/><text style="dominant-baseline: middle; font-size: 10.2px;" transform="translate(159.4140625,35)" y="0" x="0" id="text-entity-User-818c511a-4a32-5484-ba70-875d765a9175-attr-1-comment" class="er entityLabel"/><rect height="22" width="56.4375" y="46" x="0" class="er attributeBoxEven"/><text style="dominant-baseline: middle; font-size: 10.2px;" transform="translate(5,57)" y="0" x="0" id="text-entity-User-818c511a-4a32-5484-ba70-875d765a9175-attr-2-type" class="er entityLabel">DateTime</text><rect height="22" width="97.9765625" y="46" x="56.4375" class="er attributeBoxEven"/><text style="dominant-baseline: middle; font-size: 10.2px;" transform="translate(61.4375,57)" y="0" x="0" id="text-entity-User-818c511a-4a32-5484-ba70-875d765a9175-attr-2-name" class="er entityLabel">created_at</text><rect height="22" width="22.5" y="46" x="154.4140625" class="er attributeBoxEven"/><text style="dominant-baseline: middle; font-size: 10.2px;" transform="translate(159.4140625,57)" y="0" x="0" id="text-entity-User-818c511a-4a32-5484-ba70-875d765a9175-attr-2-comment" class="er entityLabel"/><rect height="22" width="56.4375" y="68" x="0" class="er attributeBoxOdd"/><text style="dominant-baseline: middle; font-size: 10.2px;" transform="translate(5,79)" y="0" x="0" id="text-entity-User-818c511a-4a32-5484-ba70-875d765a9175-attr-3-type" class="er entityLabel">DateTime</text><rect height="22" width="97.9765625" y="68" x="56.4375" class="er attributeBoxOdd"/><text style="dominant-baseline: middle; font-size: 10.2px;" transform="translate(61.4375,79)" y="0" x="0" id="text-entity-User-818c511a-4a32-5484-ba70-875d765a9175-attr-3-name" class="er entityLabel">updated_at</text><rect height="22" width="22.5" y="68" x="154.4140625" class="er attributeBoxOdd"/><text style="dominant-baseline: middle; font-size: 10.2px;" transform="translate(159.4140625,79)" y="0" x="0" id="text-entity-User-818c511a-4a32-5484-ba70-875d765a9175-attr-3-comment" class="er entityLabel"/><rect height="22" width="56.4375" y="90" x="0" class="er attributeBoxEven"/><text style="dominant-baseline: middle; font-size: 10.2px;" transform="translate(5,101)" y="0" x="0" id="text-entity-User-818c511a-4a32-5484-ba70-875d765a9175-attr-4-type" class="er entityLabel">String</text><rect height="22" width="97.9765625" y="90" x="56.4375" class="er attributeBoxEven"/><text style="dominant-baseline: middle; font-size: 10.2px;" transform="translate(61.4375,101)" y="0" x="0" id="text-entity-User-818c511a-4a32-5484-ba70-875d765a9175-attr-4-name" class="er entityLabel">email</text><rect height="22" width="22.5" y="90" x="154.4140625" class="er attributeBoxEven"/><text style="dominant-baseline: middle; font-size: 10.2px;" transform="translate(159.4140625,101)" y="0" x="0" id="text-entity-User-818c511a-4a32-5484-ba70-875d765a9175-attr-4-comment" class="er entityLabel"/><rect height="22" width="56.4375" y="112" x="0" class="er attributeBoxOdd"/><text style="dominant-baseline: middle; font-size: 10.2px;" transform="translate(5,123)" y="0" x="0" id="text-entity-User-818c511a-4a32-5484-ba70-875d765a9175-attr-5-type" class="er entityLabel">String</text><rect height="22" width="97.9765625" y="112" x="56.4375" class="er attributeBoxOdd"/><text style="dominant-baseline: middle; font-size: 10.2px;" transform="translate(61.4375,123)" y="0" x="0" id="text-entity-User-818c511a-4a32-5484-ba70-875d765a9175-attr-5-name" class="er entityLabel">name</text><rect height="22" width="22.5" y="112" x="154.4140625" class="er attributeBoxOdd"/><text style="dominant-baseline: middle; font-size: 10.2px;" transform="translate(159.4140625,123)" y="0" x="0" id="text-entity-User-818c511a-4a32-5484-ba70-875d765a9175-attr-5-comment" class="er entityLabel"/><rect height="22" width="56.4375" y="134" x="0" class="er attributeBoxEven"/><text style="dominant-baseline: middle; font-size: 10.2px;" transform="translate(5,145)" y="0" x="0" id="text-entity-User-818c511a-4a32-5484-ba70-875d765a9175-attr-6-type" class="er entityLabel">Int</text><rect height="22" width="97.9765625" y="134" x="56.4375" class="er attributeBoxEven"/><text style="dominant-baseline: middle; font-size: 10.2px;" transform="translate(61.4375,145)" y="0" x="0" id="text-entity-User-818c511a-4a32-5484-ba70-875d765a9175-attr-6-name" class="er entityLabel">points</text><rect height="22" width="22.5" y="134" x="154.4140625" class="er attributeBoxEven"/><text style="dominant-baseline: middle; font-size: 10.2px;" transform="translate(159.4140625,145)" y="0" x="0" id="text-entity-User-818c511a-4a32-5484-ba70-875d765a9175-attr-6-comment" class="er entityLabel"/><rect height="22" width="56.4375" y="156" x="0" class="er attributeBoxOdd"/><text style="dominant-baseline: middle; font-size: 10.2px;" transform="translate(5,167)" y="0" x="0" id="text-entity-User-818c511a-4a32-5484-ba70-875d765a9175-attr-7-type" class="er entityLabel">UserRole</text><rect height="22" width="97.9765625" y="156" x="56.4375" class="er attributeBoxOdd"/><text style="dominant-baseline: middle; font-size: 10.2px;" transform="translate(61.4375,167)" y="0" x="0" id="text-entity-User-818c511a-4a32-5484-ba70-875d765a9175-attr-7-name" class="er entityLabel">role</text><rect height="22" width="22.5" y="156" x="154.4140625" class="er attributeBoxOdd"/><text style="dominant-baseline: middle; font-size: 10.2px;" transform="translate(159.4140625,167)" y="0" x="0" id="text-entity-User-818c511a-4a32-5484-ba70-875d765a9175-attr-7-comment" class="er entityLabel"/><rect height="22" width="56.4375" y="178" x="0" class="er attributeBoxEven"/><text style="dominant-baseline: middle; font-size: 10.2px;" transform="translate(5,189)" y="0" x="0" id="text-entity-User-818c511a-4a32-5484-ba70-875d765a9175-attr-8-type" class="er entityLabel">Gender</text><rect height="22" width="97.9765625" y="178" x="56.4375" class="er attributeBoxEven"/><text style="dominant-baseline: middle; font-size: 10.2px;" transform="translate(61.4375,189)" y="0" x="0" id="text-entity-User-818c511a-4a32-5484-ba70-875d765a9175-attr-8-name" class="er entityLabel">gender</text><rect height="22" width="22.5" y="178" x="154.4140625" class="er attributeBoxEven"/><text style="dominant-baseline: middle; font-size: 10.2px;" transform="translate(159.4140625,189)" y="0" x="0" id="text-entity-User-818c511a-4a32-5484-ba70-875d765a9175-attr-8-comment" class="er entityLabel"/><rect height="22.5" width="56.4375" y="200" x="0" class="er attributeBoxOdd"/><text style="dominant-baseline: middle; font-size: 10.2px;" transform="translate(5,211.25)" y="0" x="0" id="text-entity-User-818c511a-4a32-5484-ba70-875d765a9175-attr-9-type" class="er entityLabel">DateTime</text><rect height="22.5" width="97.9765625" y="200" x="56.4375" class="er attributeBoxOdd"/><text style="dominant-baseline: middle; font-size: 10.2px;" transform="translate(61.4375,211.25)" y="0" x="0" id="text-entity-User-818c511a-4a32-5484-ba70-875d765a9175-attr-9-name" class="er entityLabel">last_donation_date</text><rect height="22.5" width="22.5" y="200" x="154.4140625" class="er attributeBoxOdd"/><text style="dominant-baseline: middle; font-size: 10.2px;" transform="translate(159.4140625,211.25)" y="0" x="0" id="text-entity-User-818c511a-4a32-5484-ba70-875d765a9175-attr-9-comment" class="er entityLabel">❓</text><rect height="22" width="56.4375" y="222.5" x="0" class="er attributeBoxEven"/><text style="dominant-baseline: middle; font-size: 10.2px;" transform="translate(5,233.5)" y="0" x="0" id="text-entity-User-818c511a-4a32-5484-ba70-875d765a9175-attr-10-type" class="er entityLabel">BloodType</text><rect height="22" width="97.9765625" y="222.5" x="56.4375" class="er attributeBoxEven"/><text style="dominant-baseline: middle; font-size: 10.2px;" transform="translate(61.4375,233.5)" y="0" x="0" id="text-entity-User-818c511a-4a32-5484-ba70-875d765a9175-attr-10-name" class="er entityLabel">blood_type</text><rect height="22" width="22.5" y="222.5" x="154.4140625" class="er attributeBoxEven"/><text style="dominant-baseline: middle; font-size: 10.2px;" transform="translate(159.4140625,233.5)" y="0" x="0" id="text-entity-User-818c511a-4a32-5484-ba70-875d765a9175-attr-10-comment" class="er entityLabel"/><rect height="22" width="56.4375" y="244.5" x="0" class="er attributeBoxOdd"/><text style="dominant-baseline: middle; font-size: 10.2px;" transform="translate(5,255.5)" y="0" x="0" id="text-entity-User-818c511a-4a32-5484-ba70-875d765a9175-attr-11-type" class="er entityLabel">String</text><rect height="22" width="97.9765625" y="244.5" x="56.4375" class="er attributeBoxOdd"/><text style="dominant-baseline: middle; font-size: 10.2px;" transform="translate(61.4375,255.5)" y="0" x="0" id="text-entity-User-818c511a-4a32-5484-ba70-875d765a9175-attr-11-name" class="er entityLabel">cpf</text><rect height="22" width="22.5" y="244.5" x="154.4140625" class="er attributeBoxOdd"/><text style="dominant-baseline: middle; font-size: 10.2px;" transform="translate(159.4140625,255.5)" y="0" x="0" id="text-entity-User-818c511a-4a32-5484-ba70-875d765a9175-attr-11-comment" class="er entityLabel"/></g><g transform="translate(794.19921875,1089.5 )" id="entity-Reward-a36dc4c1-38e0-50f0-91d7-37ca2a652d98"><rect height="134.5" width="120.0078125" y="0" x="0" class="er entityBox"/><text style="dominant-baseline: middle; text-anchor: middle; font-size: 12px;" transform="translate(60.00390625,12)" y="0" x="0" id="text-entity-Reward-a36dc4c1-38e0-50f0-91d7-37ca2a652d98" class="er entityLabel">Reward</text><rect height="22.5" width="36.5234375" y="24" x="0" class="er attributeBoxOdd"/><text style="dominant-baseline: middle; font-size: 10.2px;" transform="translate(5,35.25)" y="0" x="0" id="text-entity-Reward-a36dc4c1-38e0-50f0-91d7-37ca2a652d98-attr-1-type" class="er entityLabel">String</text><rect height="22.5" width="60.984375" y="24" x="36.5234375" class="er attributeBoxOdd"/><text style="dominant-baseline: middle; font-size: 10.2px;" transform="translate(41.5234375,35.25)" y="0" x="0" id="text-entity-Reward-a36dc4c1-38e0-50f0-91d7-37ca2a652d98-attr-1-name" class="er entityLabel">id</text><rect height="22.5" width="22.5" y="24" x="97.5078125" class="er attributeBoxOdd"/><text style="dominant-baseline: middle; font-size: 10.2px;" transform="translate(102.5078125,35.25)" y="0" x="0" id="text-entity-Reward-a36dc4c1-38e0-50f0-91d7-37ca2a652d98-attr-1-comment" class="er entityLabel">🗝️</text><rect height="22" width="36.5234375" y="46.5" x="0" class="er attributeBoxEven"/><text style="dominant-baseline: middle; font-size: 10.2px;" transform="translate(5,57.5)" y="0" x="0" id="text-entity-Reward-a36dc4c1-38e0-50f0-91d7-37ca2a652d98-attr-2-type" class="er entityLabel">String</text><rect height="22" width="60.984375" y="46.5" x="36.5234375" class="er attributeBoxEven"/><text style="dominant-baseline: middle; font-size: 10.2px;" transform="translate(41.5234375,57.5)" y="0" x="0" id="text-entity-Reward-a36dc4c1-38e0-50f0-91d7-37ca2a652d98-attr-2-name" class="er entityLabel">name</text><rect height="22" width="22.5" y="46.5" x="97.5078125" class="er attributeBoxEven"/><text style="dominant-baseline: middle; font-size: 10.2px;" transform="translate(102.5078125,57.5)" y="0" x="0" id="text-entity-Reward-a36dc4c1-38e0-50f0-91d7-37ca2a652d98-attr-2-comment" class="er entityLabel"/><rect height="22" width="36.5234375" y="68.5" x="0" class="er attributeBoxOdd"/><text style="dominant-baseline: middle; font-size: 10.2px;" transform="translate(5,79.5)" y="0" x="0" id="text-entity-Reward-a36dc4c1-38e0-50f0-91d7-37ca2a652d98-attr-3-type" class="er entityLabel">String</text><rect height="22" width="60.984375" y="68.5" x="36.5234375" class="er attributeBoxOdd"/><text style="dominant-baseline: middle; font-size: 10.2px;" transform="translate(41.5234375,79.5)" y="0" x="0" id="text-entity-Reward-a36dc4c1-38e0-50f0-91d7-37ca2a652d98-attr-3-name" class="er entityLabel">description</text><rect height="22" width="22.5" y="68.5" x="97.5078125" class="er attributeBoxOdd"/><text style="dominant-baseline: middle; font-size: 10.2px;" transform="translate(102.5078125,79.5)" y="0" x="0" id="text-entity-Reward-a36dc4c1-38e0-50f0-91d7-37ca2a652d98-attr-3-comment" class="er entityLabel"/><rect height="22" width="36.5234375" y="90.5" x="0" class="er attributeBoxEven"/><text style="dominant-baseline: middle; font-size: 10.2px;" transform="translate(5,101.5)" y="0" x="0" id="text-entity-Reward-a36dc4c1-38e0-50f0-91d7-37ca2a652d98-attr-4-type" class="er entityLabel">String</text><rect height="22" width="60.984375" y="90.5" x="36.5234375" class="er attributeBoxEven"/><text style="dominant-baseline: middle; font-size: 10.2px;" transform="translate(41.5234375,101.5)" y="0" x="0" id="text-entity-Reward-a36dc4c1-38e0-50f0-91d7-37ca2a652d98-attr-4-name" class="er entityLabel">imageUrl</text><rect height="22" width="22.5" y="90.5" x="97.5078125" class="er attributeBoxEven"/><text style="dominant-baseline: middle; font-size: 10.2px;" transform="translate(102.5078125,101.5)" y="0" x="0" id="text-entity-Reward-a36dc4c1-38e0-50f0-91d7-37ca2a652d98-attr-4-comment" class="er entityLabel"/><rect height="22" width="36.5234375" y="112.5" x="0" class="er attributeBoxOdd"/><text style="dominant-baseline: middle; font-size: 10.2px;" transform="translate(5,123.5)" y="0" x="0" id="text-entity-Reward-a36dc4c1-38e0-50f0-91d7-37ca2a652d98-attr-5-type" class="er entityLabel">Int</text><rect height="22" width="60.984375" y="112.5" x="36.5234375" class="er attributeBoxOdd"/><text style="dominant-baseline: middle; font-size: 10.2px;" transform="translate(41.5234375,123.5)" y="0" x="0" id="text-entity-Reward-a36dc4c1-38e0-50f0-91d7-37ca2a652d98-attr-5-name" class="er entityLabel">points</text><rect height="22" width="22.5" y="112.5" x="97.5078125" class="er attributeBoxOdd"/><text style="dominant-baseline: middle; font-size: 10.2px;" transform="translate(102.5078125,123.5)" y="0" x="0" id="text-entity-Reward-a36dc4c1-38e0-50f0-91d7-37ca2a652d98-attr-5-comment" class="er entityLabel"/></g><g transform="translate(780.0625,822 )" id="entity-Voucher-fc0a6196-8c8c-5730-871f-a6f8f108d722"><rect height="135" width="148.28125" y="0" x="0" class="er entityBox"/><text style="dominant-baseline: middle; text-anchor: middle; font-size: 12px;" transform="translate(74.140625,12)" y="0" x="0" id="text-entity-Voucher-fc0a6196-8c8c-5730-871f-a6f8f108d722" class="er entityLabel">Voucher</text><rect height="22.5" width="53.6640625" y="24" x="0" class="er attributeBoxOdd"/><text style="dominant-baseline: middle; font-size: 10.2px;" transform="translate(5,35.25)" y="0" x="0" id="text-entity-Voucher-fc0a6196-8c8c-5730-871f-a6f8f108d722-attr-1-type" class="er entityLabel">String</text><rect height="22.5" width="72.1171875" y="24" x="53.6640625" class="er attributeBoxOdd"/><text style="dominant-baseline: middle; font-size: 10.2px;" transform="translate(58.6640625,35.25)" y="0" x="0" id="text-entity-Voucher-fc0a6196-8c8c-5730-871f-a6f8f108d722-attr-1-name" class="er entityLabel">id</text><rect height="22.5" width="22.5" y="24" x="125.78125" class="er attributeBoxOdd"/><text style="dominant-baseline: middle; font-size: 10.2px;" transform="translate(130.78125,35.25)" y="0" x="0" id="text-entity-Voucher-fc0a6196-8c8c-5730-871f-a6f8f108d722-attr-1-comment" class="er entityLabel">🗝️</text><rect height="22" width="53.6640625" y="46.5" x="0" class="er attributeBoxEven"/><text style="dominant-baseline: middle; font-size: 10.2px;" transform="translate(5,57.5)" y="0" x="0" id="text-entity-Voucher-fc0a6196-8c8c-5730-871f-a6f8f108d722-attr-2-type" class="er entityLabel">String</text><rect height="22" width="72.1171875" y="46.5" x="53.6640625" class="er attributeBoxEven"/><text style="dominant-baseline: middle; font-size: 10.2px;" transform="translate(58.6640625,57.5)" y="0" x="0" id="text-entity-Voucher-fc0a6196-8c8c-5730-871f-a6f8f108d722-attr-2-name" class="er entityLabel">code</text><rect height="22" width="22.5" y="46.5" x="125.78125" class="er attributeBoxEven"/><text style="dominant-baseline: middle; font-size: 10.2px;" transform="translate(130.78125,57.5)" y="0" x="0" id="text-entity-Voucher-fc0a6196-8c8c-5730-871f-a6f8f108d722-attr-2-comment" class="er entityLabel"/><rect height="22" width="53.6640625" y="68.5" x="0" class="er attributeBoxOdd"/><text style="dominant-baseline: middle; font-size: 10.2px;" transform="translate(5,79.5)" y="0" x="0" id="text-entity-Voucher-fc0a6196-8c8c-5730-871f-a6f8f108d722-attr-3-type" class="er entityLabel">DateTime</text><rect height="22" width="72.1171875" y="68.5" x="53.6640625" class="er attributeBoxOdd"/><text style="dominant-baseline: middle; font-size: 10.2px;" transform="translate(58.6640625,79.5)" y="0" x="0" id="text-entity-Voucher-fc0a6196-8c8c-5730-871f-a6f8f108d722-attr-3-name" class="er entityLabel">generated_at</text><rect height="22" width="22.5" y="68.5" x="125.78125" class="er attributeBoxOdd"/><text style="dominant-baseline: middle; font-size: 10.2px;" transform="translate(130.78125,79.5)" y="0" x="0" id="text-entity-Voucher-fc0a6196-8c8c-5730-871f-a6f8f108d722-attr-3-comment" class="er entityLabel"/><rect height="22.5" width="53.6640625" y="90.5" x="0" class="er attributeBoxEven"/><text style="dominant-baseline: middle; font-size: 10.2px;" transform="translate(5,101.75)" y="0" x="0" id="text-entity-Voucher-fc0a6196-8c8c-5730-871f-a6f8f108d722-attr-4-type" class="er entityLabel">String</text><rect height="22.5" width="72.1171875" y="90.5" x="53.6640625" class="er attributeBoxEven"/><text style="dominant-baseline: middle; font-size: 10.2px;" transform="translate(58.6640625,101.75)" y="0" x="0" id="text-entity-Voucher-fc0a6196-8c8c-5730-871f-a6f8f108d722-attr-4-name" class="er entityLabel">reedemed_by</text><rect height="22.5" width="22.5" y="90.5" x="125.78125" class="er attributeBoxEven"/><text style="dominant-baseline: middle; font-size: 10.2px;" transform="translate(130.78125,101.75)" y="0" x="0" id="text-entity-Voucher-fc0a6196-8c8c-5730-871f-a6f8f108d722-attr-4-comment" class="er entityLabel">❓</text><rect height="22" width="53.6640625" y="113" x="0" class="er attributeBoxOdd"/><text style="dominant-baseline: middle; font-size: 10.2px;" transform="translate(5,124)" y="0" x="0" id="text-entity-Voucher-fc0a6196-8c8c-5730-871f-a6f8f108d722-attr-5-type" class="er entityLabel">String</text><rect height="22" width="72.1171875" y="113" x="53.6640625" class="er attributeBoxOdd"/><text style="dominant-baseline: middle; font-size: 10.2px;" transform="translate(58.6640625,124)" y="0" x="0" id="text-entity-Voucher-fc0a6196-8c8c-5730-871f-a6f8f108d722-attr-5-name" class="er entityLabel">reward_id</text><rect height="22" width="22.5" y="113" x="125.78125" class="er attributeBoxOdd"/><text style="dominant-baseline: middle; font-size: 10.2px;" transform="translate(130.78125,124)" y="0" x="0" id="text-entity-Voucher-fc0a6196-8c8c-5730-871f-a6f8f108d722-attr-5-comment" class="er entityLabel"/></g><rect height="14" width="68.671875" y="153.08355712890625" x="532.78564453125" class="er relationshipLabelBox"/><text style="text-anchor: middle; dominant-baseline: middle; font-size: 12px;" y="160.08355712890625" x="567.12158203125" id="rel1" class="er relationshipLabel">appointment</text><rect height="14" width="22.625" y="364.8411865234375" x="553.81982421875" class="er relationshipLabelBox"/><text style="text-anchor: middle; dominant-baseline: middle; font-size: 12px;" y="371.8411865234375" x="565.13232421875" id="rel2" class="er relationshipLabel">user</text><rect height="14" width="64.515625" y="153.08355712890625" x="618.24560546875" class="er relationshipLabelBox"/><text style="text-anchor: middle; dominant-baseline: middle; font-size: 12px;" y="160.08355712890625" x="650.50341796875" id="rel3" class="er relationshipLabel">hemocenter</text><rect height="14" width="55.21875" y="669.1580200195312" x="239.06350708007812" class="er relationshipLabelBox"/><text style="text-anchor: middle; dominant-baseline: middle; font-size: 12px;" y="676.1580200195312" x="266.6728820800781" id="rel4" class="er relationshipLabel">enum:role</text><rect height="14" width="71.046875" y="699.2805786132812" x="356.2828369140625" class="er relationshipLabelBox"/><text style="text-anchor: middle; dominant-baseline: middle; font-size: 12px;" y="706.2805786132812" x="391.8062744140625" id="rel5" class="er relationshipLabel">enum:gender</text><rect height="14" width="94.015625" y="732.5" x="561.8046875" class="er relationshipLabelBox"/><text style="text-anchor: middle; dominant-baseline: middle; font-size: 12px;" y="739.5" x="608.8125" id="rel6" class="er relationshipLabel">enum:blood_type</text><rect height="14" width="73.53125" y="364.8411865234375" x="615.72705078125" class="er relationshipLabelBox"/><text style="text-anchor: middle; dominant-baseline: middle; font-size: 12px;" y="371.8411865234375" x="652.49267578125" id="rel7" class="er relationshipLabel">appointments</text><rect height="14" width="42.984375" y="722.9934692382812" x="746.4221801757812" class="er relationshipLabelBox"/><text style="text-anchor: middle; dominant-baseline: middle; font-size: 12px;" y="729.9934692382812" x="767.9143676757812" id="rel8" class="er relationshipLabel">Voucher</text><rect height="14" width="42.984375" y="1016.063232421875" x="873.4942016601562" class="er relationshipLabelBox"/><text style="text-anchor: middle; dominant-baseline: middle; font-size: 12px;" y="1023.063232421875" x="894.9863891601562" id="rel9" class="er relationshipLabel">Voucher</text><rect height="14" width="22.625" y="687.765380859375" x="813.0047607421875" class="er relationshipLabelBox"/><text style="text-anchor: middle; dominant-baseline: middle; font-size: 12px;" y="694.765380859375" x="824.3172607421875" id="rel10" class="er relationshipLabel">user</text><rect height="14" width="39.6328125" y="1016.063232421875" x="793.6034545898438" class="er relationshipLabelBox"/><text style="text-anchor: middle; dominant-baseline: middle; font-size: 12px;" y="1023.063232421875" x="813.4198608398438" id="rel11" class="er relationshipLabel">Reward</text></svg>