<svg xmlns="http://www.w3.org/2000/svg" viewBox="0 0 500 500"><g id="freepik--Floor--inject-25"><path id="freepik--floor--inject-25" d="M82.1,259.92c-92.72,53.54-92.72,140.33,0,193.87s243.06,53.53,335.79,0,92.72-140.33,0-193.87S174.83,206.39,82.1,259.92Z" style="fill:#fafafa"></path></g><g id="freepik--Graphics--inject-25"><g id="freepik--Icons--inject-25"><path d="M59.17,114.56a3.09,3.09,0,1,1-3.09-3.09A3.08,3.08,0,0,1,59.17,114.56Z" style="fill:#e6e6e6"></path><path d="M33.9,193.19a3.09,3.09,0,1,1-3.08,3.09,3.09,3.09,0,0,1,3.08-3.09m0-1A4.09,4.09,0,1,0,38,196.28a4.09,4.09,0,0,0-4.09-4.09Z" style="fill:#f5f5f5"></path><polygon points="75.27 93.57 70.55 100.78 65.83 93.57 70.55 86.36 75.27 93.57" style="fill:#f5f5f5"></polygon><path d="M40.93,92.48,36.53,95a.75.75,0,0,0-.28,1,.76.76,0,0,0,1,.27l4.4-2.54a.75.75,0,0,0,.27-1A.74.74,0,0,0,40.93,92.48Zm5.72-1.69a.74.74,0,0,0,.37-.1l4.4-2.54a.75.75,0,0,0,.28-1,.76.76,0,0,0-1-.28l-4.4,2.54a.75.75,0,0,0,.38,1.4ZM51.42,95,47,92.48a.75.75,0,0,0-.75,1.3l4.4,2.54a.76.76,0,0,0,1-.27A.76.76,0,0,0,51.42,95Zm-9.74-5.63-4.4-2.54a.76.76,0,0,0-1,.28.74.74,0,0,0,.28,1l4.4,2.54a.69.69,0,0,0,.37.1.75.75,0,0,0,.65-.37A.76.76,0,0,0,41.68,89.39ZM44,93.92a.76.76,0,0,0-.75.75v5.09a.75.75,0,1,0,1.5,0V94.67A.75.75,0,0,0,44,93.92Zm0-11.25a.76.76,0,0,0-.75.75V88.5a.75.75,0,0,0,1.5,0V83.42A.75.75,0,0,0,44,82.67Z" style="fill:#f5f5f5"></path><path d="M422.12,76.73a4.67,4.67,0,1,0,4.67-4.68A4.67,4.67,0,0,0,422.12,76.73Z" style="fill:#e0e0e0"></path><path d="M432.6,104.13a3.09,3.09,0,1,1-3.09,3.08,3.09,3.09,0,0,1,3.09-3.08m0-1a4.09,4.09,0,1,0,4.09,4.08,4.09,4.09,0,0,0-4.09-4.08Z" style="fill:#f5f5f5"></path><polygon points="459.34 187.39 464.06 194.6 468.78 187.39 464.06 180.18 459.34 187.39" style="fill:#f5f5f5"></polygon><path d="M455.38,90.49a.76.76,0,0,0,.28,1l4.4,2.54a.71.71,0,0,0,.37.1.76.76,0,0,0,.65-.38.74.74,0,0,0-.27-1l-4.4-2.54A.75.75,0,0,0,455.38,90.49Zm-4-2.33a.76.76,0,0,0-.28-1l-4.4-2.54a.75.75,0,0,0-.75,1.3l4.4,2.54a.75.75,0,0,0,.38.1A.76.76,0,0,0,451.34,88.16Zm-5.7,5.62a.74.74,0,0,0,1,.28l4.4-2.54a.76.76,0,0,0,.28-1,.75.75,0,0,0-1-.27l-4.4,2.54A.74.74,0,0,0,445.64,93.78Zm9.74-5.62a.76.76,0,0,0,1,.27l4.4-2.54a.75.75,0,0,0-.75-1.3l-4.4,2.54A.76.76,0,0,0,455.38,88.16Zm-2.77,4.25v5.08a.75.75,0,1,0,1.5,0V92.41a.75.75,0,1,0-1.5,0Zm0-11.25v5.08a.75.75,0,1,0,1.5,0V81.16a.75.75,0,1,0-1.5,0Z" style="fill:#f5f5f5"></path><path d="M53,212.76l-4.4,2.54a.76.76,0,0,0-.27,1,.75.75,0,0,0,.65.37.69.69,0,0,0,.37-.1l4.4-2.54a.74.74,0,0,0,.28-1A.75.75,0,0,0,53,212.76Zm5.73-1.68a.86.86,0,0,0,.37-.1l4.4-2.54a.76.76,0,0,0,.28-1,.75.75,0,0,0-1-.27l-4.4,2.54a.75.75,0,0,0,.38,1.4Zm4.77,4.22-4.4-2.54a.75.75,0,0,0-.75,1.3l4.4,2.54a.76.76,0,0,0,1-.27A.76.76,0,0,0,63.53,215.3Zm-9.75-5.62-4.4-2.54a.74.74,0,0,0-1,.27.76.76,0,0,0,.27,1L53,211a.86.86,0,0,0,.38.1.76.76,0,0,0,.65-.38A.74.74,0,0,0,53.78,209.68Zm2.3,4.53a.75.75,0,0,0-.75.75V220a.75.75,0,0,0,1.5,0V215A.74.74,0,0,0,56.08,214.21Zm0-11.26a.76.76,0,0,0-.75.75v5.08a.75.75,0,0,0,1.5,0V203.7A.75.75,0,0,0,56.08,203Z" style="fill:#e6e6e6"></path><path d="M437,205.91l-4.4,2.54a.76.76,0,0,0-.28,1,.76.76,0,0,0,1,.27l4.4-2.54a.75.75,0,0,0-.75-1.3Zm5.72-1.69a.69.69,0,0,0,.37-.1l4.41-2.54a.75.75,0,0,0-.75-1.3l-4.41,2.55a.75.75,0,0,0,.38,1.39Zm4.78,4.23-4.41-2.54a.75.75,0,0,0-.75,1.3l4.41,2.54a.69.69,0,0,0,.37.1.75.75,0,0,0,.65-.37A.76.76,0,0,0,447.51,208.45Zm-9.75-5.62-4.4-2.55a.76.76,0,0,0-1,.28.75.75,0,0,0,.28,1l4.4,2.54a.74.74,0,0,0,.37.1.75.75,0,0,0,.65-.37A.74.74,0,0,0,437.76,202.83Zm2.3,4.52a.75.75,0,0,0-.75.75v5.09a.75.75,0,0,0,1.5,0V208.1A.76.76,0,0,0,440.06,207.35Zm0-11.25a.75.75,0,0,0-.75.75v5.08a.75.75,0,0,0,1.5,0v-5.08A.76.76,0,0,0,440.06,196.1Z" style="fill:#e6e6e6"></path></g></g><g id="freepik--Plants--inject-25"><g id="freepik--plants--inject-25"><g id="freepik--plants--inject-25"><path d="M45.76,351.17a6.77,6.77,0,0,0-6.42-3.37c-3.54.16-6.87,2-7,2.37s2.7,2.92,6.83,3.25A8,8,0,0,0,45.76,351.17Z" style="fill:#FF0000"></path><path d="M52.79,356.45a6.8,6.8,0,0,0-7.26-.07c-3.07,1.76-5.22,4.88-5.13,5.3s3.73,1.37,7.55-.23A8,8,0,0,0,52.79,356.45Z" style="fill:#FF0000"></path><path d="M52.79,356.45a6.8,6.8,0,0,0-7.26-.07c-3.07,1.76-5.22,4.88-5.13,5.3s3.73,1.37,7.55-.23A8,8,0,0,0,52.79,356.45Z" style="fill:#fff;opacity:0.4"></path><path d="M58.55,352.93a6.82,6.82,0,0,0-1.19-7.16c-2.27-2.72-5.33-4.35-5.72-4.19s-.81,4.32,1,7.59C54.56,352.73,57.56,352.68,58.55,352.93Z" style="fill:#FF0000"></path><path d="M81.55,372.34a27.76,27.76,0,0,0-6.28-7.18,54.13,54.13,0,0,0-7.12-5.3,69.63,69.63,0,0,0-16.8-7.64c-3.75-1.12-7.79-2.17-11.73-2-.09,0-.13.21,0,.22A55.65,55.65,0,0,1,50.06,353a63.52,63.52,0,0,1,9,3.49,66.47,66.47,0,0,1,13.8,8.88A92.64,92.64,0,0,1,80.58,373,.6.6,0,0,0,81.55,372.34Z" style="fill:#37474f"></path><path d="M59.92,355.46A21.86,21.86,0,0,0,58.13,351a12.24,12.24,0,0,0-2.75-3.67c-.16-.14-.09.18,0,.3a35.8,35.8,0,0,1,2,3.59,15.48,15.48,0,0,1,1.28,4.15,1,1,0,0,0,.8.78A.51.51,0,0,0,59.92,355.46Z" style="fill:#37474f"></path><path d="M59.33,355.33a17.71,17.71,0,0,0-6.66.58,19.84,19.84,0,0,0-2.93.9,12,12,0,0,0-3.16,1.79s-.18.29-.1.25a34.37,34.37,0,0,1,3.3-1.32,18.44,18.44,0,0,1,3.14-.81,28.63,28.63,0,0,1,6.43-.49C59.8,356.24,59.71,355.39,59.33,355.33Z" style="fill:#37474f"></path><path d="M64.61,362.12a6.79,6.79,0,0,0-7.08-1.58c-3.37,1.08-6.13,3.69-6.13,4.11s3.37,2.12,7.44,1.36A8,8,0,0,0,64.61,362.12Z" style="fill:#FF0000"></path><path d="M71.24,362.39a17.49,17.49,0,0,0-6.63-.82,19.55,19.55,0,0,0-3.06.27,12.08,12.08,0,0,0-3.46,1.08s-.24.26-.15.24a33.27,33.27,0,0,1,3.51-.61,18.26,18.26,0,0,1,3.23-.14,29.56,29.56,0,0,1,6.4.86C71.51,363.38,71.61,362.53,71.24,362.39Z" style="fill:#37474f"></path></g><g id="freepik--plants--inject-25"><path d="M58.19,323.43a7.45,7.45,0,0,1-2.42-7.58c.84-3.79,3.42-7.06,3.89-7.1s2.65,3.47,2.21,8A8.76,8.76,0,0,1,58.19,323.43Z" style="fill:#FF0000"></path><path d="M62.56,332a7.44,7.44,0,0,1,1.31-7.85c2.48-3,6.27-4.71,6.7-4.54s.78,4.29-1.68,8.12A8.71,8.71,0,0,1,62.56,332Z" style="fill:#FF0000"></path><path d="M57.66,337.58a7.44,7.44,0,0,1-7.5-2.64c-2.51-3-3.69-6.58-3.45-7s4.83-.06,8,2.49C58.21,333.23,57.59,336.47,57.66,337.58Z" style="fill:#FF0000"></path><path d="M57.66,337.58a7.44,7.44,0,0,1-7.5-2.64c-2.51-3-3.69-6.58-3.45-7s4.83-.06,8,2.49C58.21,333.23,57.59,336.47,57.66,337.58Z" style="fill:#fff;opacity:0.2"></path><path d="M74.28,366.14c-2.74-2.17-4.75-5.21-6.57-8.15a59.14,59.14,0,0,1-4.38-8.71,76.41,76.41,0,0,1-5.06-19.61c-.5-4.27-.87-8.84,0-13.07,0-.09.25-.09.25,0a60.54,60.54,0,0,0,.82,11.82,72.18,72.18,0,0,0,2.06,10.41,73.52,73.52,0,0,0,7,16.6,99.94,99.94,0,0,0,6.8,9.79C75.71,365.91,75,366.69,74.28,366.14Z" style="fill:#37474f"></path><path d="M60.14,339.54a23.34,23.34,0,0,1-4.49-2.78,13.36,13.36,0,0,1-3.45-3.66c-.11-.2.22-.07.33,0A38.39,38.39,0,0,0,56,336a17.26,17.26,0,0,0,4.25,2.18,1.08,1.08,0,0,1,.69,1A.56.56,0,0,1,60.14,339.54Z" style="fill:#37474f"></path><path d="M60.12,338.89A19.22,19.22,0,0,1,62,331.8a21.22,21.22,0,0,1,1.54-3,13.24,13.24,0,0,1,2.52-3.08s.36-.13.3-.05A35.21,35.21,0,0,0,64.3,329a20.44,20.44,0,0,0-1.47,3.24,31.47,31.47,0,0,0-1.75,6.86C61,339.57,60.1,339.31,60.12,338.89Z" style="fill:#37474f"></path><path d="M66.44,345.88a7.46,7.46,0,0,1-.35-7.95c1.8-3.44,5.14-5.92,5.6-5.84s1.66,4,0,8.29A8.72,8.72,0,0,1,66.44,345.88Z" style="fill:#FF0000"></path><path d="M66.44,345.88a7.46,7.46,0,0,1-.35-7.95c1.8-3.44,5.14-5.92,5.6-5.84s1.66,4,0,8.29A8.72,8.72,0,0,1,66.44,345.88Z" style="fill:#fff;opacity:0.4"></path><path d="M65.49,353.1a19.26,19.26,0,0,1,.36-7.33,21.68,21.68,0,0,1,.88-3.25A13.35,13.35,0,0,1,68.56,339s.32-.2.28-.11a33.63,33.63,0,0,0-1.33,3.67,19.9,19.9,0,0,0-.76,3.47,31.33,31.33,0,0,0-.28,7.08C66.5,353.58,65.56,353.52,65.49,353.1Z" style="fill:#37474f"></path></g></g><g id="freepik--plants--inject-25"><g id="freepik--plants--inject-25"><path d="M452.62,350.33a6.81,6.81,0,0,1,6.23-3.73c3.54,0,7,1.58,7.1,2s-2.52,3.08-6.63,3.63A8,8,0,0,1,452.62,350.33Z" style="fill:#FF0000"></path><path d="M445.9,356a6.81,6.81,0,0,1,7.24-.47c3.17,1.59,5.48,4.59,5.42,5s-3.65,1.58-7.55.2A8,8,0,0,1,445.9,356Z" style="fill:#FF0000"></path><path d="M445.9,356a6.81,6.81,0,0,1,7.24-.47c3.17,1.59,5.48,4.59,5.42,5s-3.65,1.58-7.55.2A8,8,0,0,1,445.9,356Z" style="fill:#fff;opacity:0.4"></path><path d="M440,352.8a6.81,6.81,0,0,1,.8-7.21c2.1-2.84,5.07-4.64,5.47-4.51s1,4.27-.55,7.63C443.93,352.38,440.93,352.5,440,352.8Z" style="fill:#FF0000"></path><path d="M418.06,373.46a27.78,27.78,0,0,1,5.88-7.51,53,53,0,0,1,6.81-5.7,69.72,69.72,0,0,1,16.36-8.56c3.68-1.33,7.65-2.6,11.59-2.68.09,0,.14.2.05.22a55.48,55.48,0,0,0-10.31,3.18,65.84,65.84,0,0,0-8.81,4A67.47,67.47,0,0,0,426.34,366a95.92,95.92,0,0,0-7.27,8.07A.6.6,0,0,1,418.06,373.46Z" style="fill:#37474f"></path><path d="M438.73,355.4a21.68,21.68,0,0,1,1.54-4.56A12.24,12.24,0,0,1,442.8,347c.16-.14.11.18,0,.3a34.88,34.88,0,0,0-1.79,3.69,15.84,15.84,0,0,0-1.06,4.22,1,1,0,0,1-.74.82A.5.5,0,0,1,438.73,355.4Z" style="fill:#37474f"></path><path d="M439.31,355.24a17.49,17.49,0,0,1,6.68.21,19.09,19.09,0,0,1,3,.74,11.84,11.84,0,0,1,3.25,1.6s.19.29.11.25A33.25,33.25,0,0,0,449,356.9a18.27,18.27,0,0,0-3.17-.63,28.76,28.76,0,0,0-6.45-.13C438.89,356.18,438.93,355.32,439.31,355.24Z" style="fill:#37474f"></path><path d="M434.42,362.31a6.78,6.78,0,0,1,7-2c3.42.89,6.32,3.34,6.34,3.76s-3.24,2.31-7.35,1.77A7.94,7.94,0,0,1,434.42,362.31Z" style="fill:#FF0000"></path><path d="M427.81,363a17.31,17.31,0,0,1,6.58-1.2,20.82,20.82,0,0,1,3.06.1,12.08,12.08,0,0,1,3.52.89s.25.24.16.23a32.18,32.18,0,0,0-3.53-.42,18.09,18.09,0,0,0-3.24.05,29.37,29.37,0,0,0-6.34,1.21C427.59,364,427.45,363.11,427.81,363Z" style="fill:#37474f"></path></g><g id="freepik--plants--inject-25"><path d="M438.67,323.33a7.46,7.46,0,0,0,2-7.71c-1.06-3.74-3.82-6.85-4.28-6.87s-2.45,3.61-1.77,8.1A8.78,8.78,0,0,0,438.67,323.33Z" style="fill:#FF0000"></path><path d="M434.78,332.15a7.44,7.44,0,0,0-1.74-7.77c-2.64-2.84-6.52-4.36-6.94-4.16s-.54,4.33,2.13,8A8.74,8.74,0,0,0,434.78,332.15Z" style="fill:#FF0000"></path><path d="M440,337.43a7.45,7.45,0,0,0,7.35-3.06c2.34-3.1,3.32-6.78,3.05-7.16s-4.82.21-7.86,2.94C439.2,333.11,440,336.31,440,337.43Z" style="fill:#FF0000"></path><path d="M440,337.43a7.45,7.45,0,0,0,7.35-3.06c2.34-3.1,3.32-6.78,3.05-7.16s-4.82.21-7.86,2.94C439.2,333.11,440,336.31,440,337.43Z" style="fill:#fff;opacity:0.2"></path><path d="M425,366.86c2.62-2.32,4.46-5.46,6.11-8.5a60.12,60.12,0,0,0,3.89-8.94,76.43,76.43,0,0,0,4-19.86c.26-4.29.37-8.87-.76-13.05,0-.09-.25-.08-.25,0a60.57,60.57,0,0,1-.16,11.85,71.58,71.58,0,0,1-1.48,10.5,73.62,73.62,0,0,1-6,17A101.62,101.62,0,0,1,424,366,.65.65,0,0,0,425,366.86Z" style="fill:#37474f"></path><path d="M437.62,339.52a22.83,22.83,0,0,0,4.32-3,13.11,13.11,0,0,0,3.24-3.84c.11-.21-.21-.06-.32,0a38.22,38.22,0,0,1-3.33,3,17,17,0,0,1-4.13,2.42,1.08,1.08,0,0,0-.63,1A.56.56,0,0,0,437.62,339.52Z" style="fill:#37474f"></path><path d="M437.61,338.86a19.3,19.3,0,0,0-2.28-7,22.32,22.32,0,0,0-1.7-2.91,13.5,13.5,0,0,0-2.69-2.93c-.05,0-.37-.11-.3,0a36.55,36.55,0,0,1,2.24,3.19,20.47,20.47,0,0,1,1.65,3.15,32.07,32.07,0,0,1,2.13,6.75C436.76,339.6,437.65,339.29,437.61,338.86Z" style="fill:#37474f"></path><path d="M431.68,346.2a7.45,7.45,0,0,0-.09-8c-2-3.33-5.46-5.62-5.92-5.52s-1.43,4.13.41,8.29A8.73,8.73,0,0,0,431.68,346.2Z" style="fill:#FF0000"></path><path d="M431.68,346.2a7.45,7.45,0,0,0-.09-8c-2-3.33-5.46-5.62-5.92-5.52s-1.43,4.13.41,8.29A8.73,8.73,0,0,0,431.68,346.2Z" style="fill:#fff;opacity:0.4"></path><path d="M433,353.36a19.27,19.27,0,0,0-.77-7.3,22.22,22.22,0,0,0-1.06-3.2,13.43,13.43,0,0,0-2-3.43s-.33-.18-.29-.09a35.86,35.86,0,0,1,1.53,3.59,20.47,20.47,0,0,1,.95,3.42,31.85,31.85,0,0,1,.68,7C432.05,353.9,433,353.78,433,353.36Z" style="fill:#37474f"></path></g></g></g><g id="freepik--Sunburst--inject-25"><g id="freepik--Sparkles--inject-25"><path d="M249.35,196.93c-1.57-3.53-1.69-7.05-1.69-10.58l-.12-10.57c-.12-7.05-.08-14.1-.08-21.15.07-14.09.29-28.19.49-42.29s.43-28.19.75-42.29l.5-21.14c.21-7,.38-14.1.64-21.15h.32c.26,7.05.43,14.1.64,21.15l.5,21.14c.32,14.1.49,28.2.75,42.29s.42,28.2.49,42.29c0,7.05,0,14.1-.08,21.15l-.12,10.57c0,3.53-.12,7.05-1.69,10.58Z" style="fill:#FF0000"></path><path d="M249.36,197c-2.16-3.2-2.89-6.65-3.5-10.12l-2-10.39c-1.34-6.92-2.52-13.87-3.74-20.81-2.38-13.9-4.61-27.82-6.86-41.74s-4.48-27.84-6.61-41.78L223.5,51.29c-1-7-2.06-13.95-3-20.93l.31-.06c1.48,6.9,2.87,13.81,4.31,20.71l4.16,20.74c2.76,13.83,5.38,27.68,8.08,41.52s5.31,27.7,7.83,41.57c1.22,6.94,2.49,13.87,3.59,20.83l1.72,10.44c.61,3.47,1.1,7,.17,10.7Z" style="fill:#FF0000"></path><path d="M249.39,197.15c-2.68-2.78-4-6.05-5.21-9.36l-3.73-9.89c-2.52-6.58-4.89-13.22-7.3-19.85-4.76-13.27-9.37-26.59-14-39.91s-9.24-26.64-13.76-40l-6.77-20c-2.21-6.7-4.46-13.38-6.63-20.09l.3-.11c2.66,6.53,5.23,13.1,7.84,19.65l7.7,19.7C213,90.4,217.93,103.58,223,116.74s10,26.35,14.93,39.58c2.41,6.62,4.87,13.23,7.16,19.89l3.5,10c1.21,3.31,2.3,6.67,2,10.51Z" style="fill:#FF0000"></path><path d="M249.44,197.25c-3.12-2.27-5-5.26-6.75-8.31l-5.4-9.1c-3.63-6-7.11-12.17-10.63-18.27-7-12.24-13.85-24.56-20.72-36.87s-13.73-24.63-20.5-37L175.29,69.14c-3.33-6.21-6.71-12.4-10-18.64l.27-.15c3.75,6,7.42,12,11.14,18l11,18.07c7.32,12,14.52,24.17,21.79,36.25s14.46,24.21,21.57,36.38c3.53,6.11,7.09,12.19,10.51,18.35l5.18,9.22c1.76,3.05,3.42,6.16,3.82,10Z" style="fill:#FF0000"></path><path d="M249.51,197.34c-3.47-1.69-5.83-4.31-8.1-7l-6.89-8c-4.62-5.32-9.12-10.75-13.65-16.15-9-10.84-17.9-21.78-26.81-32.71s-17.79-21.88-26.61-32.88L154.24,84.05c-4.37-5.54-8.77-11-13.1-16.61l.24-.2c4.73,5.23,9.39,10.52,14.09,15.78l14,15.88c9.31,10.59,18.5,21.28,27.76,31.92s18.45,21.32,27.56,32.08c4.53,5.4,9.1,10.77,13.54,16.24l6.7,8.18c2.26,2.7,4.43,5.48,5.49,9.19Z" style="fill:#FF0000"></path><path d="M249.58,197.42c-3.71-1.06-6.48-3.23-9.18-5.5l-8.18-6.7c-5.48-4.44-10.85-9-16.25-13.53-10.75-9.12-21.41-18.35-32.08-27.57S162.57,125.67,152,116.37l-15.88-14c-5.26-4.7-10.55-9.36-15.78-14.09l.2-.24c5.57,4.33,11.08,8.73,16.62,13.09l16.51,13.22c11,8.81,21.92,17.74,32.88,26.61s21.87,17.8,32.71,26.81c5.4,4.53,10.83,9,16.16,13.65l8,6.89c2.7,2.26,5.32,4.62,7,8.09Z" style="fill:#FF0000"></path><path d="M249.68,197.48c-3.84-.4-7-2-10-3.81l-9.21-5.18c-6.17-3.42-12.25-7-18.35-10.51-12.18-7.11-24.28-14.35-36.38-21.57s-24.21-14.47-36.26-21.8l-18.06-11c-6-3.71-12-7.38-18-11.13l.16-.27c6.23,3.29,12.42,6.67,18.63,10l18.56,10.14c12.37,6.77,24.67,13.67,37,20.5s24.63,13.73,36.87,20.72c6.11,3.53,12.24,7,18.28,10.64l9.09,5.39c3.06,1.76,6.05,3.63,8.31,6.76Z" style="fill:#FF0000"></path><path d="M249.78,197.53c-3.85.27-7.2-.82-10.52-2l-10-3.5c-6.67-2.3-13.28-4.75-19.9-7.16-13.22-4.89-26.39-9.92-39.57-14.93s-26.35-10-39.49-15.17l-19.7-7.69c-6.55-2.62-13.11-5.19-19.65-7.85l.11-.29c6.71,2.16,13.39,4.42,20.09,6.62l20,6.77c13.36,4.52,26.66,9.18,40,13.76s26.64,9.25,39.91,14c6.62,2.41,13.26,4.77,19.84,7.3l9.9,3.73c3.31,1.2,6.58,2.53,9.35,5.21Z" style="fill:#FF0000"></path><path d="M249.89,197.56c-3.75.94-7.24.45-10.71-.17l-10.43-1.71c-7-1.11-13.9-2.38-20.84-3.6-13.87-2.51-27.72-5.18-41.56-7.83s-27.7-5.31-41.52-8.08L104.09,172c-6.9-1.43-13.82-2.82-20.71-4.31l.05-.3c7,1,14,2,20.94,3l20.91,3.19c13.94,2.13,27.85,4.41,41.78,6.6s27.84,4.48,41.73,6.86c6.94,1.23,13.89,2.4,20.81,3.75L240,192.78c3.48.62,6.92,1.35,10.12,3.51Z" style="fill:#FF0000"></path><path d="M250,197.57c-3.52,1.57-7.05,1.7-10.57,1.7l-10.58.12c-7,.12-14.09.07-21.14.07-14.1-.07-28.2-.29-42.29-.49s-28.2-.42-42.29-.75L102,197.73c-7-.22-14.1-.39-21.15-.65v-.31c7-.26,14.1-.43,21.15-.65l21.15-.49c14.09-.32,28.19-.5,42.29-.75s28.19-.42,42.29-.49c7,0,14.1,0,21.14.07l10.58.13c3.52,0,7,.12,10.57,1.69Z" style="fill:#FF0000"></path><path d="M250.11,197.56c-3.2,2.16-6.64,2.9-10.12,3.51l-10.39,2c-6.92,1.35-13.87,2.52-20.81,3.75-13.89,2.38-27.81,4.61-41.73,6.86s-27.84,4.47-41.78,6.61l-20.91,3.18c-7,1-14,2.07-20.94,3l-.05-.3c6.89-1.49,13.81-2.88,20.71-4.31l20.74-4.16c13.82-2.77,27.68-5.38,41.52-8.08s27.69-5.31,41.56-7.83c6.94-1.22,13.88-2.49,20.84-3.6l10.43-1.71c3.47-.62,7-1.11,10.71-.17Z" style="fill:#FF0000"></path><path d="M250.22,197.53c-2.77,2.68-6,4-9.35,5.21l-9.9,3.73c-6.58,2.53-13.22,4.89-19.84,7.31-13.27,4.75-26.6,9.37-39.91,14s-26.64,9.24-40,13.76l-20,6.77c-6.7,2.2-13.38,4.46-20.09,6.62l-.11-.29c6.54-2.66,13.1-5.23,19.65-7.84l19.7-7.7c13.14-5.12,26.33-10.11,39.49-15.17s26.35-10,39.57-14.93c6.62-2.41,13.23-4.86,19.9-7.16l10-3.5c3.32-1.2,6.67-2.29,10.52-2Z" style="fill:#FF0000"></path><path d="M250.32,197.48c-2.26,3.13-5.25,5-8.31,6.76l-9.09,5.39c-6,3.63-12.17,7.11-18.28,10.64-12.24,7-24.56,13.85-36.87,20.72s-24.63,13.73-37,20.5l-18.56,10.14c-6.21,3.34-12.4,6.72-18.63,10l-.16-.27c6-3.75,12-7.42,18-11.13l18.06-11c12.05-7.33,24.18-14.53,36.26-21.79s24.2-14.47,36.38-21.58c6.1-3.52,12.18-7.09,18.35-10.51l9.21-5.17c3.06-1.77,6.17-3.42,10-3.82Z" style="fill:#FF0000"></path><path d="M250.41,197.42c-1.68,3.47-4.3,5.83-7,8.09l-8,6.9c-5.33,4.62-10.76,9.11-16.16,13.64-10.84,9-21.78,17.91-32.71,26.81s-21.87,17.8-32.88,26.61l-16.51,13.22c-5.54,4.36-11,8.76-16.62,13.09l-.2-.24c5.23-4.73,10.52-9.39,15.78-14.09l15.88-14c10.6-9.3,21.29-18.5,31.92-27.75s21.33-18.45,32.08-27.56c5.4-4.53,10.77-9.1,16.25-13.54l8.18-6.7c2.7-2.27,5.47-4.44,9.18-5.5Z" style="fill:#FF0000"></path><path d="M250.49,197.34c-1.06,3.71-3.23,6.49-5.49,9.19l-6.7,8.18c-4.44,5.48-9,10.84-13.54,16.24-9.11,10.76-18.35,21.42-27.56,32.08S178.75,284.36,169.44,295l-14,15.88c-4.7,5.26-9.36,10.55-14.09,15.78l-.24-.2c4.33-5.57,8.73-11.07,13.1-16.61l13.21-16.52c8.82-11,17.75-21.91,26.61-32.87s17.8-21.88,26.81-32.72c4.53-5.4,9-10.83,13.65-16.15l6.89-8c2.27-2.7,4.63-5.32,8.1-7Z" style="fill:#FF0000"></path><path d="M250.56,197.25c-.4,3.84-2.06,6.95-3.82,10l-5.18,9.22c-3.42,6.16-7,12.25-10.51,18.35-7.11,12.17-14.35,24.27-21.57,36.38S195,295.4,187.69,307.45l-11,18.07c-3.72,6-7.39,12-11.14,18l-.27-.16c3.3-6.24,6.68-12.42,10-18.64l10.15-18.56c6.77-12.37,13.67-24.66,20.5-37s13.73-24.63,20.72-36.87c3.52-6.1,7-12.23,10.63-18.27l5.4-9.1c1.76-3,3.63-6,6.75-8.31Z" style="fill:#FF0000"></path><path d="M250.61,197.15c.27,3.85-.82,7.2-2,10.51l-3.5,10c-2.29,6.66-4.75,13.27-7.16,19.89C233,250.76,228,263.93,223,277.11s-10,26.35-15.16,39.48l-7.7,19.7c-2.61,6.55-5.18,13.12-7.84,19.65l-.3-.1c2.17-6.72,4.42-13.4,6.63-20.1l6.77-20c4.52-13.35,9.18-26.66,13.76-40s9.24-26.64,14-39.91c2.41-6.62,4.78-13.26,7.3-19.85l3.73-9.89c1.21-3.31,2.53-6.58,5.21-9.36Z" style="fill:#FF0000"></path><path d="M250.64,197c.93,3.74.44,7.23-.17,10.7l-1.72,10.44c-1.1,7-2.37,13.89-3.59,20.84-2.52,13.87-5.19,27.71-7.83,41.56s-5.32,27.69-8.08,41.52l-4.16,20.74c-1.44,6.9-2.83,13.81-4.31,20.71l-.31-.06c1-7,2-13.95,3-20.93l3.19-20.91c2.13-13.94,4.41-27.85,6.61-41.78s4.48-27.84,6.86-41.74c1.22-6.94,2.4-13.89,3.74-20.81l2-10.39c.61-3.47,1.34-6.92,3.5-10.12Z" style="fill:#FF0000"></path><path d="M250.65,196.93c1.57,3.52,1.69,7,1.69,10.57l.12,10.57c.12,7.05.08,14.1.08,21.15-.07,14.09-.29,28.19-.49,42.29s-.43,28.19-.75,42.29L250.8,345c-.21,7-.38,14.09-.64,21.14h-.32c-.26-7-.43-14.1-.64-21.14l-.5-21.15c-.32-14.1-.49-28.19-.75-42.29s-.42-28.2-.49-42.29c0-7.05,0-14.1.08-21.15l.12-10.57c0-3.53.12-7.05,1.69-10.57Z" style="fill:#FF0000"></path><path d="M250.64,196.81c2.16,3.2,2.89,6.65,3.5,10.12l2,10.39c1.34,6.92,2.52,13.87,3.74,20.81,2.38,13.9,4.61,27.82,6.86,41.74s4.48,27.84,6.61,41.78l3.19,20.91c1,7,2.06,13.95,3,20.93l-.31.06c-1.48-6.9-2.87-13.81-4.31-20.71l-4.16-20.74c-2.76-13.83-5.38-27.68-8.08-41.52s-5.31-27.69-7.83-41.56c-1.22-7-2.49-13.88-3.59-20.84l-1.72-10.44c-.61-3.47-1.1-7-.17-10.7Z" style="fill:#FF0000"></path><path d="M250.61,196.7c2.68,2.78,4,6.05,5.21,9.36l3.73,9.89c2.52,6.59,4.89,13.23,7.3,19.85,4.76,13.27,9.37,26.59,14,39.91s9.24,26.64,13.76,40l6.77,20c2.21,6.7,4.46,13.38,6.63,20.1l-.3.1c-2.66-6.53-5.23-13.1-7.84-19.65l-7.7-19.7c-5.12-13.13-10.1-26.32-15.16-39.48s-10-26.35-14.93-39.58c-2.41-6.62-4.87-13.23-7.16-19.89l-3.5-10c-1.21-3.31-2.3-6.66-2-10.51Z" style="fill:#FF0000"></path><path d="M250.56,196.6c3.12,2.27,5,5.26,6.75,8.31l5.4,9.1c3.63,6,7.11,12.17,10.63,18.27,7,12.24,13.85,24.56,20.72,36.87s13.73,24.63,20.5,37l10.15,18.56c3.33,6.22,6.71,12.4,10,18.64l-.27.16c-3.75-6-7.42-12-11.14-18l-11-18.07c-7.32-12.05-14.52-24.17-21.79-36.25S276.06,247,269,234.82c-3.53-6.1-7.09-12.19-10.51-18.35l-5.18-9.22c-1.76-3.05-3.42-6.16-3.82-10Z" style="fill:#FF0000"></path><path d="M250.49,196.51c3.47,1.69,5.83,4.31,8.1,7l6.89,8c4.62,5.32,9.12,10.75,13.65,16.15,9,10.84,17.9,21.79,26.81,32.72s17.79,21.87,26.61,32.87l13.21,16.52c4.37,5.54,8.77,11,13.1,16.61l-.24.2c-4.73-5.23-9.39-10.52-14.09-15.78l-14-15.88c-9.31-10.59-18.5-21.28-27.76-31.92S284.35,241.71,275.24,231c-4.53-5.4-9.1-10.76-13.54-16.24l-6.7-8.18c-2.26-2.7-4.43-5.48-5.49-9.19Z" style="fill:#FF0000"></path><path d="M250.41,196.43c3.72,1.06,6.49,3.23,9.19,5.5l8.18,6.7c5.48,4.44,10.85,9,16.25,13.54,10.75,9.11,21.41,18.34,32.08,27.56s21.32,18.45,31.92,27.75l15.88,14c5.26,4.7,10.55,9.36,15.78,14.09l-.2.24c-5.57-4.33-11.08-8.73-16.62-13.09l-16.51-13.22c-11-8.81-21.92-17.74-32.88-26.61s-21.87-17.8-32.71-26.81c-5.4-4.53-10.83-9-16.16-13.64l-8-6.9c-2.7-2.26-5.32-4.62-7-8.09Z" style="fill:#FF0000"></path><path d="M250.32,196.37c3.84.4,6.95,2,10,3.82l9.21,5.17c6.17,3.42,12.25,7,18.35,10.51,12.18,7.11,24.28,14.35,36.38,21.58s24.21,14.46,36.26,21.79l18.06,11c6,3.71,12,7.38,18,11.13l-.16.27c-6.23-3.29-12.42-6.67-18.63-10l-18.56-10.14c-12.37-6.77-24.67-13.67-37-20.5s-24.63-13.73-36.87-20.72c-6.11-3.53-12.24-7-18.28-10.64L258,204.24c-3.06-1.76-6.05-3.63-8.31-6.76Z" style="fill:#FF0000"></path><path d="M250.22,196.32c3.85-.27,7.2.82,10.52,2l10,3.5c6.67,2.3,13.28,4.75,19.9,7.16,13.22,4.89,26.39,9.92,39.57,14.93s26.35,10,39.49,15.17l19.7,7.7c6.55,2.61,13.11,5.18,19.65,7.84l-.11.29c-6.71-2.16-13.39-4.42-20.09-6.62l-20-6.77c-13.36-4.52-26.66-9.18-40-13.76s-26.64-9.25-39.91-14c-6.62-2.42-13.26-4.78-19.84-7.31l-9.9-3.73c-3.31-1.2-6.58-2.53-9.35-5.21Z" style="fill:#FF0000"></path><path d="M250.11,196.29c3.75-.94,7.24-.45,10.71.17l10.43,1.71c7,1.11,13.9,2.38,20.84,3.6,13.87,2.52,27.72,5.18,41.56,7.83s27.69,5.31,41.52,8.08l20.74,4.16c6.9,1.43,13.82,2.82,20.71,4.31l-.05.3c-7-1-14-2-20.94-3l-20.91-3.18c-13.94-2.14-27.85-4.41-41.78-6.61s-27.84-4.48-41.73-6.86c-6.94-1.23-13.89-2.4-20.81-3.75l-10.39-2c-3.48-.61-6.92-1.35-10.12-3.51Z" style="fill:#FF0000"></path><path d="M250,196.28c3.52-1.57,7.05-1.7,10.57-1.69l10.58-.13c7-.12,14.09-.07,21.14-.07,14.1.07,28.2.29,42.29.49s28.2.43,42.29.75l21.15.49c7.05.22,14.1.39,21.15.65v.31c-7.05.26-14.1.43-21.15.65l-21.15.49c-14.09.33-28.19.5-42.29.75s-28.19.42-42.29.49c-7.05,0-14.1,0-21.14-.07l-10.58-.12c-3.52,0-7-.13-10.57-1.7Z" style="fill:#FF0000"></path><path d="M249.89,196.29c3.2-2.16,6.64-2.89,10.12-3.51l10.39-1.95c6.92-1.35,13.87-2.52,20.81-3.75,13.89-2.38,27.81-4.61,41.73-6.86s27.84-4.47,41.78-6.6l20.91-3.19c7-1,13.95-2.07,20.94-3l.05.3c-6.89,1.49-13.81,2.88-20.71,4.31l-20.74,4.16c-13.83,2.77-27.68,5.38-41.52,8.08s-27.69,5.32-41.56,7.83c-6.94,1.22-13.88,2.49-20.84,3.6l-10.43,1.71c-3.47.62-7,1.11-10.71.17Z" style="fill:#FF0000"></path><path d="M249.78,196.32c2.77-2.68,6-4,9.35-5.21l9.9-3.73c6.58-2.53,13.22-4.89,19.84-7.3,13.27-4.76,26.6-9.37,39.91-14s26.64-9.24,40-13.76l20-6.77c6.7-2.2,13.38-4.46,20.09-6.62l.11.29c-6.54,2.66-13.1,5.23-19.65,7.85l-19.7,7.69c-13.14,5.13-26.33,10.11-39.49,15.17s-26.35,10-39.57,14.93c-6.62,2.41-13.23,4.86-19.9,7.16l-10,3.5c-3.32,1.2-6.67,2.29-10.52,2Z" style="fill:#FF0000"></path><path d="M249.68,196.37c2.26-3.13,5.25-5,8.31-6.76l9.09-5.39c6-3.63,12.17-7.11,18.28-10.64,12.24-7,24.56-13.84,36.87-20.72s24.63-13.73,37-20.5l18.56-10.14c6.21-3.34,12.4-6.72,18.63-10l.16.27c-6,3.75-12,7.42-18,11.13l-18.06,11c-12,7.33-24.18,14.53-36.26,21.8s-24.2,14.46-36.38,21.57c-6.1,3.52-12.18,7.09-18.35,10.51l-9.21,5.18c-3.06,1.76-6.17,3.41-10,3.81Z" style="fill:#FF0000"></path><path d="M249.58,196.43c1.69-3.47,4.31-5.83,7-8.09l8-6.89c5.33-4.63,10.76-9.12,16.16-13.65,10.84-9,21.78-17.9,32.71-26.81s21.87-17.8,32.88-26.61l16.51-13.22c5.54-4.36,11.05-8.76,16.62-13.09l.2.24c-5.23,4.73-10.52,9.39-15.78,14.09l-15.88,14c-10.6,9.3-21.29,18.5-31.92,27.75S294.78,162.57,284,171.69c-5.4,4.53-10.77,9.09-16.25,13.53l-8.18,6.7c-2.7,2.27-5.47,4.44-9.19,5.5Z" style="fill:#FF0000"></path><path d="M249.51,196.51c1.06-3.71,3.23-6.49,5.49-9.19l6.7-8.18c4.44-5.47,9-10.84,13.54-16.24,9.11-10.76,18.34-21.41,27.56-32.08s18.45-21.33,27.76-31.92l14-15.88c4.7-5.26,9.36-10.55,14.09-15.78l.24.2c-4.33,5.57-8.73,11.07-13.1,16.61l-13.21,16.52c-8.82,11-17.75,21.91-26.61,32.88s-17.8,21.87-26.81,32.71c-4.53,5.4-9,10.83-13.65,16.15l-6.89,8c-2.27,2.7-4.63,5.32-8.1,7Z" style="fill:#FF0000"></path><path d="M249.44,196.6c.4-3.84,2.06-6.95,3.82-10l5.18-9.22c3.42-6.16,7-12.24,10.51-18.35,7.11-12.17,14.35-24.27,21.57-36.38S305,98.45,312.31,86.4l11-18.07c3.72-6,7.39-12,11.14-18l.27.15c-3.3,6.24-6.68,12.43-10,18.64L314.56,87.7c-6.77,12.37-13.67,24.66-20.5,37s-13.73,24.63-20.72,36.87c-3.52,6.1-7,12.23-10.63,18.27l-5.4,9.1c-1.76,3.05-3.63,6-6.75,8.31Z" style="fill:#FF0000"></path><path d="M249.39,196.7c-.27-3.84.82-7.2,2-10.51l3.5-10c2.29-6.66,4.75-13.27,7.16-19.89C267,143.09,272,129.92,277,116.74s10-26.34,15.16-39.48l7.7-19.7c2.61-6.55,5.18-13.12,7.84-19.65l.3.11c-2.17,6.71-4.42,13.39-6.63,20.09l-6.77,20c-4.52,13.35-9.18,26.66-13.76,40s-9.24,26.64-14,39.91c-2.41,6.63-4.78,13.27-7.3,19.85l-3.73,9.89c-1.21,3.31-2.53,6.58-5.21,9.36Z" style="fill:#FF0000"></path><path d="M249.36,196.81c-.93-3.74-.44-7.23.17-10.7l1.72-10.44c1.1-7,2.37-13.89,3.59-20.83,2.52-13.87,5.19-27.72,7.83-41.57s5.32-27.69,8.08-41.52L274.91,51c1.44-6.9,2.83-13.81,4.31-20.71l.31.06c-1,7-2,14-3,20.93L273.31,72.2c-2.13,13.94-4.41,27.86-6.61,41.78s-4.48,27.84-6.86,41.74c-1.22,6.94-2.4,13.89-3.74,20.81l-2,10.39c-.61,3.47-1.34,6.92-3.5,10.12Z" style="fill:#FF0000"></path><g style="opacity:0.85"><path d="M249.35,196.93c-1.57-3.53-1.69-7.05-1.69-10.58l-.12-10.57c-.12-7.05-.08-14.1-.08-21.15.07-14.09.29-28.19.49-42.29s.43-28.19.75-42.29l.5-21.14c.21-7,.38-14.1.64-21.15h.32c.26,7.05.43,14.1.64,21.15l.5,21.14c.32,14.1.49,28.2.75,42.29s.42,28.2.49,42.29c0,7.05,0,14.1-.08,21.15l-.12,10.57c0,3.53-.12,7.05-1.69,10.58Z" style="fill:#fff"></path><path d="M249.36,197c-2.16-3.2-2.89-6.65-3.5-10.12l-2-10.39c-1.34-6.92-2.52-13.87-3.74-20.81-2.38-13.9-4.61-27.82-6.86-41.74s-4.48-27.84-6.61-41.78L223.5,51.29c-1-7-2.06-13.95-3-20.93l.31-.06c1.48,6.9,2.87,13.81,4.31,20.71l4.16,20.74c2.76,13.83,5.38,27.68,8.08,41.52s5.31,27.7,7.83,41.57c1.22,6.94,2.49,13.87,3.59,20.83l1.72,10.44c.61,3.47,1.1,7,.17,10.7Z" style="fill:#fff"></path><path d="M249.39,197.15c-2.68-2.78-4-6.05-5.21-9.36l-3.73-9.89c-2.52-6.58-4.89-13.22-7.3-19.85-4.76-13.27-9.37-26.59-14-39.91s-9.24-26.64-13.76-40l-6.77-20c-2.21-6.7-4.46-13.38-6.63-20.09l.3-.11c2.66,6.53,5.23,13.1,7.84,19.65l7.7,19.7C213,90.4,217.93,103.58,223,116.74s10,26.35,14.93,39.58c2.41,6.62,4.87,13.23,7.16,19.89l3.5,10c1.21,3.31,2.3,6.67,2,10.51Z" style="fill:#fff"></path><path d="M249.44,197.25c-3.12-2.27-5-5.26-6.75-8.31l-5.4-9.1c-3.63-6-7.11-12.17-10.63-18.27-7-12.24-13.85-24.56-20.72-36.87s-13.73-24.63-20.5-37L175.29,69.14c-3.33-6.21-6.71-12.4-10-18.64l.27-.15c3.75,6,7.42,12,11.14,18l11,18.07c7.32,12,14.52,24.17,21.79,36.25s14.46,24.21,21.57,36.38c3.53,6.11,7.09,12.19,10.51,18.35l5.18,9.22c1.76,3.05,3.42,6.16,3.82,10Z" style="fill:#fff"></path><path d="M249.51,197.34c-3.47-1.69-5.83-4.31-8.1-7l-6.89-8c-4.62-5.32-9.12-10.75-13.65-16.15-9-10.84-17.9-21.78-26.81-32.71s-17.79-21.88-26.61-32.88L154.24,84.05c-4.37-5.54-8.77-11-13.1-16.61l.24-.2c4.73,5.23,9.39,10.52,14.09,15.78l14,15.88c9.31,10.59,18.5,21.28,27.76,31.92s18.45,21.32,27.56,32.08c4.53,5.4,9.1,10.77,13.54,16.24l6.7,8.18c2.26,2.7,4.43,5.48,5.49,9.19Z" style="fill:#fff"></path><path d="M249.58,197.42c-3.71-1.06-6.48-3.23-9.18-5.5l-8.18-6.7c-5.48-4.44-10.85-9-16.25-13.53-10.75-9.12-21.41-18.35-32.08-27.57S162.57,125.67,152,116.37l-15.88-14c-5.26-4.7-10.55-9.36-15.78-14.09l.2-.24c5.57,4.33,11.08,8.73,16.62,13.09l16.51,13.22c11,8.81,21.92,17.74,32.88,26.61s21.87,17.8,32.71,26.81c5.4,4.53,10.83,9,16.16,13.65l8,6.89c2.7,2.26,5.32,4.62,7,8.09Z" style="fill:#fff"></path><path d="M249.68,197.48c-3.84-.4-7-2-10-3.81l-9.21-5.18c-6.17-3.42-12.25-7-18.35-10.51-12.18-7.11-24.28-14.35-36.38-21.57s-24.21-14.47-36.26-21.8l-18.06-11c-6-3.71-12-7.38-18-11.13l.16-.27c6.23,3.29,12.42,6.67,18.63,10l18.56,10.14c12.37,6.77,24.67,13.67,37,20.5s24.63,13.73,36.87,20.72c6.11,3.53,12.24,7,18.28,10.64l9.09,5.39c3.06,1.76,6.05,3.63,8.31,6.76Z" style="fill:#fff"></path><path d="M249.78,197.53c-3.85.27-7.2-.82-10.52-2l-10-3.5c-6.67-2.3-13.28-4.75-19.9-7.16-13.22-4.89-26.39-9.92-39.57-14.93s-26.35-10-39.49-15.17l-19.7-7.69c-6.55-2.62-13.11-5.19-19.65-7.85l.11-.29c6.71,2.16,13.39,4.42,20.09,6.62l20,6.77c13.36,4.52,26.66,9.18,40,13.76s26.64,9.25,39.91,14c6.62,2.41,13.26,4.77,19.84,7.3l9.9,3.73c3.31,1.2,6.58,2.53,9.35,5.21Z" style="fill:#fff"></path><path d="M249.89,197.56c-3.75.94-7.24.45-10.71-.17l-10.43-1.71c-7-1.11-13.9-2.38-20.84-3.6-13.87-2.51-27.72-5.18-41.56-7.83s-27.7-5.31-41.52-8.08L104.09,172c-6.9-1.43-13.82-2.82-20.71-4.31l.05-.3c7,1,14,2,20.94,3l20.91,3.19c13.94,2.13,27.85,4.41,41.78,6.6s27.84,4.48,41.73,6.86c6.94,1.23,13.89,2.4,20.81,3.75L240,192.78c3.48.62,6.92,1.35,10.12,3.51Z" style="fill:#fff"></path><path d="M250,197.57c-3.52,1.57-7.05,1.7-10.57,1.7l-10.58.12c-7,.12-14.09.07-21.14.07-14.1-.07-28.2-.29-42.29-.49s-28.2-.42-42.29-.75L102,197.73c-7-.22-14.1-.39-21.15-.65v-.31c7-.26,14.1-.43,21.15-.65l21.15-.49c14.09-.32,28.19-.5,42.29-.75s28.19-.42,42.29-.49c7,0,14.1,0,21.14.07l10.58.13c3.52,0,7,.12,10.57,1.69Z" style="fill:#fff"></path><path d="M250.11,197.56c-3.2,2.16-6.64,2.9-10.12,3.51l-10.39,2c-6.92,1.35-13.87,2.52-20.81,3.75-13.89,2.38-27.81,4.61-41.73,6.86s-27.84,4.47-41.78,6.61l-20.91,3.18c-7,1-14,2.07-20.94,3l-.05-.3c6.89-1.49,13.81-2.88,20.71-4.31l20.74-4.16c13.82-2.77,27.68-5.38,41.52-8.08s27.69-5.31,41.56-7.83c6.94-1.22,13.88-2.49,20.84-3.6l10.43-1.71c3.47-.62,7-1.11,10.71-.17Z" style="fill:#fff"></path><path d="M250.22,197.53c-2.77,2.68-6,4-9.35,5.21l-9.9,3.73c-6.58,2.53-13.22,4.89-19.84,7.31-13.27,4.75-26.6,9.37-39.91,14s-26.64,9.24-40,13.76l-20,6.77c-6.7,2.2-13.38,4.46-20.09,6.62l-.11-.29c6.54-2.66,13.1-5.23,19.65-7.84l19.7-7.7c13.14-5.12,26.33-10.11,39.49-15.17s26.35-10,39.57-14.93c6.62-2.41,13.23-4.86,19.9-7.16l10-3.5c3.32-1.2,6.67-2.29,10.52-2Z" style="fill:#fff"></path><path d="M250.32,197.48c-2.26,3.13-5.25,5-8.31,6.76l-9.09,5.39c-6,3.63-12.17,7.11-18.28,10.64-12.24,7-24.56,13.85-36.87,20.72s-24.63,13.73-37,20.5l-18.56,10.14c-6.21,3.34-12.4,6.72-18.63,10l-.16-.27c6-3.75,12-7.42,18-11.13l18.06-11c12.05-7.33,24.18-14.53,36.26-21.79s24.2-14.47,36.38-21.58c6.1-3.52,12.18-7.09,18.35-10.51l9.21-5.17c3.06-1.77,6.17-3.42,10-3.82Z" style="fill:#fff"></path><path d="M250.41,197.42c-1.68,3.47-4.3,5.83-7,8.09l-8,6.9c-5.33,4.62-10.76,9.11-16.16,13.64-10.84,9-21.78,17.91-32.71,26.81s-21.87,17.8-32.88,26.61l-16.51,13.22c-5.54,4.36-11,8.76-16.62,13.09l-.2-.24c5.23-4.73,10.52-9.39,15.78-14.09l15.88-14c10.6-9.3,21.29-18.5,31.92-27.75s21.33-18.45,32.08-27.56c5.4-4.53,10.77-9.1,16.25-13.54l8.18-6.7c2.7-2.27,5.47-4.44,9.18-5.5Z" style="fill:#fff"></path><path d="M250.49,197.34c-1.06,3.71-3.23,6.49-5.49,9.19l-6.7,8.18c-4.44,5.48-9,10.84-13.54,16.24-9.11,10.76-18.35,21.42-27.56,32.08S178.75,284.36,169.44,295l-14,15.88c-4.7,5.26-9.36,10.55-14.09,15.78l-.24-.2c4.33-5.57,8.73-11.07,13.1-16.61l13.21-16.52c8.82-11,17.75-21.91,26.61-32.87s17.8-21.88,26.81-32.72c4.53-5.4,9-10.83,13.65-16.15l6.89-8c2.27-2.7,4.63-5.32,8.1-7Z" style="fill:#fff"></path><path d="M250.56,197.25c-.4,3.84-2.06,6.95-3.82,10l-5.18,9.22c-3.42,6.16-7,12.25-10.51,18.35-7.11,12.17-14.35,24.27-21.57,36.38S195,295.4,187.69,307.45l-11,18.07c-3.72,6-7.39,12-11.14,18l-.27-.16c3.3-6.24,6.68-12.42,10-18.64l10.15-18.56c6.77-12.37,13.67-24.66,20.5-37s13.73-24.63,20.72-36.87c3.52-6.1,7-12.23,10.63-18.27l5.4-9.1c1.76-3,3.63-6,6.75-8.31Z" style="fill:#fff"></path><path d="M250.61,197.15c.27,3.85-.82,7.2-2,10.51l-3.5,10c-2.29,6.66-4.75,13.27-7.16,19.89C233,250.76,228,263.93,223,277.11s-10,26.35-15.16,39.48l-7.7,19.7c-2.61,6.55-5.18,13.12-7.84,19.65l-.3-.1c2.17-6.72,4.42-13.4,6.63-20.1l6.77-20c4.52-13.35,9.18-26.66,13.76-40s9.24-26.64,14-39.91c2.41-6.62,4.78-13.26,7.3-19.85l3.73-9.89c1.21-3.31,2.53-6.58,5.21-9.36Z" style="fill:#fff"></path><path d="M250.64,197c.93,3.74.44,7.23-.17,10.7l-1.72,10.44c-1.1,7-2.37,13.89-3.59,20.84-2.52,13.87-5.19,27.71-7.83,41.56s-5.32,27.69-8.08,41.52l-4.16,20.74c-1.44,6.9-2.83,13.81-4.31,20.71l-.31-.06c1-7,2-13.95,3-20.93l3.19-20.91c2.13-13.94,4.41-27.85,6.61-41.78s4.48-27.84,6.86-41.74c1.22-6.94,2.4-13.89,3.74-20.81l2-10.39c.61-3.47,1.34-6.92,3.5-10.12Z" style="fill:#fff"></path><path d="M250.65,196.93c1.57,3.52,1.69,7,1.69,10.57l.12,10.57c.12,7.05.08,14.1.08,21.15-.07,14.09-.29,28.19-.49,42.29s-.43,28.19-.75,42.29L250.8,345c-.21,7-.38,14.09-.64,21.14h-.32c-.26-7-.43-14.1-.64-21.14l-.5-21.15c-.32-14.1-.49-28.19-.75-42.29s-.42-28.2-.49-42.29c0-7.05,0-14.1.08-21.15l.12-10.57c0-3.53.12-7.05,1.69-10.57Z" style="fill:#fff"></path><path d="M250.64,196.81c2.16,3.2,2.89,6.65,3.5,10.12l2,10.39c1.34,6.92,2.52,13.87,3.74,20.81,2.38,13.9,4.61,27.82,6.86,41.74s4.48,27.84,6.61,41.78l3.19,20.91c1,7,2.06,13.95,3,20.93l-.31.06c-1.48-6.9-2.87-13.81-4.31-20.71l-4.16-20.74c-2.76-13.83-5.38-27.68-8.08-41.52s-5.31-27.69-7.83-41.56c-1.22-7-2.49-13.88-3.59-20.84l-1.72-10.44c-.61-3.47-1.1-7-.17-10.7Z" style="fill:#fff"></path><path d="M250.61,196.7c2.68,2.78,4,6.05,5.21,9.36l3.73,9.89c2.52,6.59,4.89,13.23,7.3,19.85,4.76,13.27,9.37,26.59,14,39.91s9.24,26.64,13.76,40l6.77,20c2.21,6.7,4.46,13.38,6.63,20.1l-.3.1c-2.66-6.53-5.23-13.1-7.84-19.65l-7.7-19.7c-5.12-13.13-10.1-26.32-15.16-39.48s-10-26.35-14.93-39.58c-2.41-6.62-4.87-13.23-7.16-19.89l-3.5-10c-1.21-3.31-2.3-6.66-2-10.51Z" style="fill:#fff"></path><path d="M250.56,196.6c3.12,2.27,5,5.26,6.75,8.31l5.4,9.1c3.63,6,7.11,12.17,10.63,18.27,7,12.24,13.85,24.56,20.72,36.87s13.73,24.63,20.5,37l10.15,18.56c3.33,6.22,6.71,12.4,10,18.64l-.27.16c-3.75-6-7.42-12-11.14-18l-11-18.07c-7.32-12.05-14.52-24.17-21.79-36.25S276.06,247,269,234.82c-3.53-6.1-7.09-12.19-10.51-18.35l-5.18-9.22c-1.76-3.05-3.42-6.16-3.82-10Z" style="fill:#fff"></path><path d="M250.49,196.51c3.47,1.69,5.83,4.31,8.1,7l6.89,8c4.62,5.32,9.12,10.75,13.65,16.15,9,10.84,17.9,21.79,26.81,32.72s17.79,21.87,26.61,32.87l13.21,16.52c4.37,5.54,8.77,11,13.1,16.61l-.24.2c-4.73-5.23-9.39-10.52-14.09-15.78l-14-15.88c-9.31-10.59-18.5-21.28-27.76-31.92S284.35,241.71,275.24,231c-4.53-5.4-9.1-10.76-13.54-16.24l-6.7-8.18c-2.26-2.7-4.43-5.48-5.49-9.19Z" style="fill:#fff"></path><path d="M250.41,196.43c3.72,1.06,6.49,3.23,9.19,5.5l8.18,6.7c5.48,4.44,10.85,9,16.25,13.54,10.75,9.11,21.41,18.34,32.08,27.56s21.32,18.45,31.92,27.75l15.88,14c5.26,4.7,10.55,9.36,15.78,14.09l-.2.24c-5.57-4.33-11.08-8.73-16.62-13.09l-16.51-13.22c-11-8.81-21.92-17.74-32.88-26.61s-21.87-17.8-32.71-26.81c-5.4-4.53-10.83-9-16.16-13.64l-8-6.9c-2.7-2.26-5.32-4.62-7-8.09Z" style="fill:#fff"></path><path d="M250.32,196.37c3.84.4,6.95,2,10,3.82l9.21,5.17c6.17,3.42,12.25,7,18.35,10.51,12.18,7.11,24.28,14.35,36.38,21.58s24.21,14.46,36.26,21.79l18.06,11c6,3.71,12,7.38,18,11.13l-.16.27c-6.23-3.29-12.42-6.67-18.63-10l-18.56-10.14c-12.37-6.77-24.67-13.67-37-20.5s-24.63-13.73-36.87-20.72c-6.11-3.53-12.24-7-18.28-10.64L258,204.24c-3.06-1.76-6.05-3.63-8.31-6.76Z" style="fill:#fff"></path><path d="M250.22,196.32c3.85-.27,7.2.82,10.52,2l10,3.5c6.67,2.3,13.28,4.75,19.9,7.16,13.22,4.89,26.39,9.92,39.57,14.93s26.35,10,39.49,15.17l19.7,7.7c6.55,2.61,13.11,5.18,19.65,7.84l-.11.29c-6.71-2.16-13.39-4.42-20.09-6.62l-20-6.77c-13.36-4.52-26.66-9.18-40-13.76s-26.64-9.25-39.91-14c-6.62-2.42-13.26-4.78-19.84-7.31l-9.9-3.73c-3.31-1.2-6.58-2.53-9.35-5.21Z" style="fill:#fff"></path><path d="M250.11,196.29c3.75-.94,7.24-.45,10.71.17l10.43,1.71c7,1.11,13.9,2.38,20.84,3.6,13.87,2.52,27.72,5.18,41.56,7.83s27.69,5.31,41.52,8.08l20.74,4.16c6.9,1.43,13.82,2.82,20.71,4.31l-.05.3c-7-1-14-2-20.94-3l-20.91-3.18c-13.94-2.14-27.85-4.41-41.78-6.61s-27.84-4.48-41.73-6.86c-6.94-1.23-13.89-2.4-20.81-3.75l-10.39-2c-3.48-.61-6.92-1.35-10.12-3.51Z" style="fill:#fff"></path><path d="M250,196.28c3.52-1.57,7.05-1.7,10.57-1.69l10.58-.13c7-.12,14.09-.07,21.14-.07,14.1.07,28.2.29,42.29.49s28.2.43,42.29.75l21.15.49c7.05.22,14.1.39,21.15.65v.31c-7.05.26-14.1.43-21.15.65l-21.15.49c-14.09.33-28.19.5-42.29.75s-28.19.42-42.29.49c-7.05,0-14.1,0-21.14-.07l-10.58-.12c-3.52,0-7-.13-10.57-1.7Z" style="fill:#fff"></path><path d="M249.89,196.29c3.2-2.16,6.64-2.89,10.12-3.51l10.39-1.95c6.92-1.35,13.87-2.52,20.81-3.75,13.89-2.38,27.81-4.61,41.73-6.86s27.84-4.47,41.78-6.6l20.91-3.19c7-1,13.95-2.07,20.94-3l.05.3c-6.89,1.49-13.81,2.88-20.71,4.31l-20.74,4.16c-13.83,2.77-27.68,5.38-41.52,8.08s-27.69,5.32-41.56,7.83c-6.94,1.22-13.88,2.49-20.84,3.6l-10.43,1.71c-3.47.62-7,1.11-10.71.17Z" style="fill:#fff"></path><path d="M249.78,196.32c2.77-2.68,6-4,9.35-5.21l9.9-3.73c6.58-2.53,13.22-4.89,19.84-7.3,13.27-4.76,26.6-9.37,39.91-14s26.64-9.24,40-13.76l20-6.77c6.7-2.2,13.38-4.46,20.09-6.62l.11.29c-6.54,2.66-13.1,5.23-19.65,7.85l-19.7,7.69c-13.14,5.13-26.33,10.11-39.49,15.17s-26.35,10-39.57,14.93c-6.62,2.41-13.23,4.86-19.9,7.16l-10,3.5c-3.32,1.2-6.67,2.29-10.52,2Z" style="fill:#fff"></path><path d="M249.68,196.37c2.26-3.13,5.25-5,8.31-6.76l9.09-5.39c6-3.63,12.17-7.11,18.28-10.64,12.24-7,24.56-13.84,36.87-20.72s24.63-13.73,37-20.5l18.56-10.14c6.21-3.34,12.4-6.72,18.63-10l.16.27c-6,3.75-12,7.42-18,11.13l-18.06,11c-12,7.33-24.18,14.53-36.26,21.8s-24.2,14.46-36.38,21.57c-6.1,3.52-12.18,7.09-18.35,10.51l-9.21,5.18c-3.06,1.76-6.17,3.41-10,3.81Z" style="fill:#fff"></path><path d="M249.58,196.43c1.69-3.47,4.31-5.83,7-8.09l8-6.89c5.33-4.63,10.76-9.12,16.16-13.65,10.84-9,21.78-17.9,32.71-26.81s21.87-17.8,32.88-26.61l16.51-13.22c5.54-4.36,11.05-8.76,16.62-13.09l.2.24c-5.23,4.73-10.52,9.39-15.78,14.09l-15.88,14c-10.6,9.3-21.29,18.5-31.92,27.75S294.78,162.57,284,171.69c-5.4,4.53-10.77,9.09-16.25,13.53l-8.18,6.7c-2.7,2.27-5.47,4.44-9.19,5.5Z" style="fill:#fff"></path><path d="M249.51,196.51c1.06-3.71,3.23-6.49,5.49-9.19l6.7-8.18c4.44-5.47,9-10.84,13.54-16.24,9.11-10.76,18.34-21.41,27.56-32.08s18.45-21.33,27.76-31.92l14-15.88c4.7-5.26,9.36-10.55,14.09-15.78l.24.2c-4.33,5.57-8.73,11.07-13.1,16.61l-13.21,16.52c-8.82,11-17.75,21.91-26.61,32.88s-17.8,21.87-26.81,32.71c-4.53,5.4-9,10.83-13.65,16.15l-6.89,8c-2.27,2.7-4.63,5.32-8.1,7Z" style="fill:#fff"></path><path d="M249.44,196.6c.4-3.84,2.06-6.95,3.82-10l5.18-9.22c3.42-6.16,7-12.24,10.51-18.35,7.11-12.17,14.35-24.27,21.57-36.38S305,98.45,312.31,86.4l11-18.07c3.72-6,7.39-12,11.14-18l.27.15c-3.3,6.24-6.68,12.43-10,18.64L314.56,87.7c-6.77,12.37-13.67,24.66-20.5,37s-13.73,24.63-20.72,36.87c-3.52,6.1-7,12.23-10.63,18.27l-5.4,9.1c-1.76,3.05-3.63,6-6.75,8.31Z" style="fill:#fff"></path><path d="M249.39,196.7c-.27-3.84.82-7.2,2-10.51l3.5-10c2.29-6.66,4.75-13.27,7.16-19.89C267,143.09,272,129.92,277,116.74s10-26.34,15.16-39.48l7.7-19.7c2.61-6.55,5.18-13.12,7.84-19.65l.3.11c-2.17,6.71-4.42,13.39-6.63,20.09l-6.77,20c-4.52,13.35-9.18,26.66-13.76,40s-9.24,26.64-14,39.91c-2.41,6.63-4.78,13.27-7.3,19.85l-3.73,9.89c-1.21,3.31-2.53,6.58-5.21,9.36Z" style="fill:#fff"></path><path d="M249.36,196.81c-.93-3.74-.44-7.23.17-10.7l1.72-10.44c1.1-7,2.37-13.89,3.59-20.83,2.52-13.87,5.19-27.72,7.83-41.57s5.32-27.69,8.08-41.52L274.91,51c1.44-6.9,2.83-13.81,4.31-20.71l.31.06c-1,7-2,14-3,20.93L273.31,72.2c-2.13,13.94-4.41,27.86-6.61,41.78s-4.48,27.84-6.86,41.74c-1.22,6.94-2.4,13.89-3.74,20.81l-2,10.39c-.61,3.47-1.34,6.92-3.5,10.12Z" style="fill:#fff"></path></g></g></g><g id="freepik--Shadows--inject-25"><ellipse id="freepik--Shadow--inject-25" cx="385.27" cy="401.78" rx="66.42" ry="38.35" style="fill:#e0e0e0"></ellipse><ellipse id="freepik--shadow--inject-25" cx="116.21" cy="401.78" rx="66.42" ry="38.35" style="fill:#e0e0e0"></ellipse><path id="freepik--shadow--inject-25" d="M281.7,398.44c-36.25-5.19-63.5,8.6-77.44,19.22-8.37,6.38-11.1,20.3,14.19,20.52s39.9-9.85,50.87-4.45c10.63,5.23,17.94,23.59,34.32,21.79,12.15-1.34,14.73-13.88,10.05-29.87C309.54,411.46,301.85,401.33,281.7,398.44Z" style="fill:#e0e0e0"></path></g><g id="freepik--character-3--inject-25"><g id="freepik--Character--inject-25"><g id="freepik--Bottom--inject-25"><path d="M413.3,368c.2-5,3.07-60,3.07-60l-25.2,18.15c3.93,28.69,5.59,41.89,5.87,46.67h0a3.6,3.6,0,0,0-.09,1.23c.24,5.67,7.11,8.5,12.51,12.1A99.9,99.9,0,0,0,424,394.48c3.9,1.69,11.66,1.59,12.53-.78-6.58-4.42-14.19-9.24-19.49-14.37C414.54,376.89,413.05,374,413.3,368Z" style="fill:#f0f0f0"></path><path d="M444.23,399.5c.3,0,.9,3.41-.71,4.93-1.86,1.75-7.4,4.73-14.89,4s-11.62-2.91-14.7-5.35-7.39-5.86-10.79-6.5c-3.16-.59-6.62-1.91-7.66-2.86s-1.07-5.33-1.07-5.33Z" style="fill:#e0e0e0"></path><path d="M444.23,399.5c.3,0,.9,3.41-.71,4.93-1.86,1.75-7.4,4.73-14.89,4s-11.62-2.91-14.7-5.35-7.39-5.86-10.79-6.5c-3.16-.59-6.62-1.91-7.66-2.86s-1.07-5.33-1.07-5.33Z" style="opacity:0.30000000000000004"></path><path d="M396.94,371.43a1,1,0,0,0-1,1c-.18,1.22-.4,4.76-.82,6.75-.58,2.78-1,8.48-.54,10.71s5.66,3.6,9,4.75a41.33,41.33,0,0,1,10.83,6.42c3.62,2.81,11.1,5.49,16,5.39,7.42-.15,12.15-2.37,13.53-5.14,1.71-3.42,1.05-5.78-7.62-9.5a100.92,100.92,0,0,1-9.68-5.32,28.56,28.56,0,0,1-11.23-12.94,3.31,3.31,0,0,0-1.29-1.77,2.69,2.69,0,0,0-1.66-.09c-1.42.25-5.51.92-6.78,1.59-1.12.6-2.72,1.3-2.63,2.79a5,5,0,0,0,.37,1.51c.12.3.21.7,0,.89s-.58,0-.81-.2a23.11,23.11,0,0,1-2.4-2.72,8.12,8.12,0,0,0-1.4-1.35,13.9,13.9,0,0,1-1.5-.91S397,372.13,396.94,371.43Z" style="fill:#e0e0e0"></path><path d="M396.94,371.43a1,1,0,0,0-1,1c-.18,1.22-.4,4.76-.82,6.75-.58,2.78-1,8.48-.54,10.71s5.66,3.6,9,4.75a41.33,41.33,0,0,1,10.83,6.42c3.62,2.81,11.1,5.49,16,5.39,7.42-.15,12.15-2.37,13.53-5.14,1.71-3.42,1.05-5.78-7.62-9.5a100.92,100.92,0,0,1-9.68-5.32,28.56,28.56,0,0,1-11.23-12.94,3.31,3.31,0,0,0-1.29-1.77,2.69,2.69,0,0,0-1.66-.09c-1.42.25-5.51.92-6.78,1.59-1.12.6-2.72,1.3-2.63,2.79a5,5,0,0,0,.37,1.51c.12.3.21.7,0,.89s-.58,0-.81-.2a23.11,23.11,0,0,1-2.4-2.72,8.12,8.12,0,0,0-1.4-1.35,13.9,13.9,0,0,1-1.5-.91S397,372.13,396.94,371.43Z" style="opacity:0.1"></path><path d="M436.52,391.82C425.81,393,421.33,400,422.68,405.1a24.78,24.78,0,0,0,7.69,1.36c7.42-.15,12.45-2.38,13.83-5.15C445.81,398.09,444.25,394.49,436.52,391.82Z" style="fill:#fafafa"></path><path d="M421.94,393.37a.48.48,0,0,1-.34-.11.53.53,0,0,1-.1-.74,12.48,12.48,0,0,1,9.56-4.25.54.54,0,0,1,.49.57.53.53,0,0,1-.56.5,11.6,11.6,0,0,0-8.66,3.82A.46.46,0,0,1,421.94,393.37Z" style="fill:#f0f0f0"></path><path d="M417.61,390.76a.53.53,0,0,1-.34-.11.54.54,0,0,1-.1-.75,12.44,12.44,0,0,1,9.56-4.24.52.52,0,0,1,.48.57.51.51,0,0,1-.55.49,11.61,11.61,0,0,0-8.66,3.83A.51.51,0,0,1,417.61,390.76Z" style="fill:#f0f0f0"></path><path d="M413.33,387.41a.48.48,0,0,1-.34-.11.53.53,0,0,1-.1-.74,12.52,12.52,0,0,1,9.56-4.25.54.54,0,0,1,.49.57.52.52,0,0,1-.56.5,11.57,11.57,0,0,0-8.66,3.82A.48.48,0,0,1,413.33,387.41Z" style="fill:#f0f0f0"></path><path d="M409.1,384.05a.51.51,0,0,1-.33-.1.53.53,0,0,1-.11-.75c1.95-2.71,6.53-4.62,10.45-4.33a.54.54,0,0,1-.07,1.07c-3.53-.26-7.8,1.49-9.54,3.89A.5.5,0,0,1,409.1,384.05Z" style="fill:#f0f0f0"></path><path d="M370.17,329l-24.84-5c-.85,15-.46,39.57-.43,53.46,0,2.66-1.76,20.59-1.07,26.11,1,8.31,12.16,7.92,13.14,3.05s2.07-25.7,2.28-27.85a13.88,13.88,0,0,1,.22-1.94C362.22,364.16,370,329.75,370.17,329Z" style="fill:#f0f0f0"></path><path d="M360.85,410.3c-.16,4.83-.91,8.6-2.76,11.48s-5.32,4-9.06,3.25-8.7-3.55-9.9-7.68-1.07-7-.38-11.49Z" style="fill:#e0e0e0"></path><path d="M360.85,410.3c-.16,4.83-.91,8.6-2.76,11.48s-5.32,4-9.06,3.25-8.7-3.55-9.9-7.68-1.07-7-.38-11.49Z" style="opacity:0.30000000000000004"></path><path d="M344.89,375.91c-1.52.15-1.68,6.44-2.35,12.94-.72,7-3,9.9-3.64,15.62-.76,6.53-.27,9.43,2.44,13.31s12,7.52,16.32,1.78c3.53-4.68,3.52-9.78,3-16.28a145.58,145.58,0,0,1-.87-16.53c.14-4.89,1-9.42-.3-9.93-.08.72-.15,1.63-.24,2.33-.06.54-.13,3.19-1,3.23a8.61,8.61,0,0,1-.08-1.83,2,2,0,0,0-.47-1.57,5.85,5.85,0,0,0-2.39-.82c-1.51-.23-3-.43-4.56-.52-.76,0-1.53-.05-2.29,0a6.94,6.94,0,0,0-1.93.29,1.28,1.28,0,0,0-.8.68,1.73,1.73,0,0,0-.06.75,5.06,5.06,0,0,1-.15,1.34c-.05.19-.19.43-.41.39a.37.37,0,0,1-.26-.39c0-.78.06-1.36.07-2.27,0-.43,0-.83,0-1.25S344.88,376.33,344.89,375.91Z" style="fill:#e0e0e0"></path><path d="M344.89,375.91c-1.52.15-1.68,6.44-2.35,12.94-.72,7-3,9.9-3.64,15.62-.76,6.53-.27,9.43,2.44,13.31s12,7.52,16.32,1.78c3.53-4.68,3.52-9.78,3-16.28a145.58,145.58,0,0,1-.87-16.53c.14-4.89,1-9.42-.3-9.93-.08.72-.15,1.63-.24,2.33-.06.54-.13,3.19-1,3.23a8.61,8.61,0,0,1-.08-1.83,2,2,0,0,0-.47-1.57,5.85,5.85,0,0,0-2.39-.82c-1.51-.23-3-.43-4.56-.52-.76,0-1.53-.05-2.29,0a6.94,6.94,0,0,0-1.93.29,1.28,1.28,0,0,0-.8.68,1.73,1.73,0,0,0-.06.75,5.06,5.06,0,0,1-.15,1.34c-.05.19-.19.43-.41.39a.37.37,0,0,1-.26-.39c0-.78.06-1.36.07-2.27,0-.43,0-.83,0-1.25S344.88,376.33,344.89,375.91Z" style="opacity:0.1"></path><path d="M338.6,408.25c-.14,4.05.21,6.81,2.34,9.85,2.71,3.87,12.73,7.52,17.06,1.77,2.15-2.85,2.65-6.18,2.85-9.58C358,406,342.74,404.46,338.6,408.25Z" style="fill:#fafafa"></path><path d="M356.7,403.31l-.19,0a25,25,0,0,0-13.21-.89.6.6,0,0,1-.69-.36.49.49,0,0,1,.4-.61,26.07,26.07,0,0,1,14,.94.48.48,0,0,1,.29.66A.59.59,0,0,1,356.7,403.31Z" style="fill:#f0f0f0"></path><path d="M343.51,397.52a.58.58,0,0,1-.49-.33.48.48,0,0,1,.34-.64c6.78-2.21,13.64.7,13.93.83a.47.47,0,0,1,.26.67.63.63,0,0,1-.76.23c-.06,0-6.73-2.85-13-.79Z" style="fill:#f0f0f0"></path><path d="M343.76,392.93a.56.56,0,0,1-.49-.32.48.48,0,0,1,.32-.64,19.66,19.66,0,0,1,14.21.78.48.48,0,0,1,.22.69.61.61,0,0,1-.78.18A18.69,18.69,0,0,0,344,392.9.55.55,0,0,1,343.76,392.93Z" style="fill:#f0f0f0"></path><path d="M344.06,387.78a.58.58,0,0,1-.49-.31.48.48,0,0,1,.31-.65c7-2.5,14,.78,14.32.92a.47.47,0,0,1,.23.68.6.6,0,0,1-.77.2c-.06,0-6.87-3.19-13.35-.87A.54.54,0,0,1,344.06,387.78Z" style="fill:#ebebeb"></path><path d="M352,213.11c-1.55,28.35-3.94,80.69-3.94,80.69-.34,3.3-3.36,17.89-3.67,29.79-.5,19.12.27,36.81.27,36.81s11,4.68,18.57,1.66c0,0,10-43.22,12.57-55.67,3-14.83,9.47-44.35,9.47-44.35l5.07,39.18s-1.59,13.95,0,25.48c1.08,7.85,5.13,34,5.13,34s10.12,2.16,18.4-.48c0,0,3.87-55.5,4.36-62.74s1.89-44.49.11-90.16Z" style="fill:#e0e0e0"></path><path d="M394.51,355.46l1.41,8.22c3.31,1.92,13.06,2.29,17.95-1.06l.39-7.55C410.18,358.05,399.14,357.9,394.51,355.46Zm-50.07-.39v8c2.68,2.69,13,4,18.51,1.93l1.52-7.78C358.72,359.75,347.85,358.27,344.44,355.07Zm59.27-124.49a22.77,22.77,0,0,1-14.22,6.08L385.27,262l5.07,39.18-2.49-40,3.88-21.06C403.05,236.43,403.71,230.58,403.71,230.58Z" style="fill:#e0e0e0"></path><path d="M394.51,355.46l1.41,8.22c3.31,1.92,13.06,2.29,17.95-1.06l.39-7.55C410.18,358.05,399.14,357.9,394.51,355.46Zm-50.07-.39v8c2.68,2.69,13,4,18.51,1.93l1.52-7.78C358.72,359.75,347.85,358.27,344.44,355.07Zm59.27-124.49a22.77,22.77,0,0,1-14.22,6.08L385.27,262l5.07,39.18-2.49-40,3.88-21.06C403.05,236.43,403.71,230.58,403.71,230.58Z" style="opacity:0.1"></path></g><g id="freepik--Top--inject-25"><g id="freepik--Arm--inject-25"><path d="M403.8,127.35c6.91,2.05,7.79,3.58,20.32,14.17,10.22,8.63,15.69,12.29,15.69,12.29s10.66,12.65,11.12,15.13A13.74,13.74,0,0,1,445.79,181c-2.62,2-5.63,1.21-8.49-.3-3.47-1.84-5.21-2.83-6.92-3.82-11.54-6.69-20.81-12.8-20.81-12.8Z" style="fill:#e0e0e0"></path><path d="M477.14,119.46c-1.73-1-2,.6-2.6.82,0,0,1.74-2.07-1.24-3.79-1.84-1.06-2.69,1.51-2.74,1.17,0-.15,2.13-5.39,3.87-9.85,1.65-4.22.16-5.4-.53-5.73s-1.38,0-2.92,3-6.07,12.3-7.1,14.22-1.78,2.82-2.49.35c-.66-2.31-1.27-4.5-2.63-5.9-2.27-2.33-4-1.27-3.63.54.53,2.55.54,5.55,1,9.72.21,2.18.29,4.22.56,5.71.84,5.24-2.18,7.68-5.75,11.85-2.92,3.41-5.94,6.2-12.66,13.06-6.37,6.5-5.53,20.77.51,24.15,6.67,3.73,8.49,1.54,15.43-9.19,4.48-6.93,10.44-19.63,12.09-22.57s2.24-4.73,4.55-6.19c3.15-2,4.54-4.09,6.25-7.19.82-1.49,2.38-4.21,3.39-6.42s1.1-3.77-.16-4.69c-1.72-1.26-2.19.64-2.36.45S479.61,120.88,477.14,119.46Z" style="fill:#ebebeb"></path><path d="M474.9,130.49c-.59-.84,0-2.37,0-2.37a2.92,2.92,0,0,1-1.38,1.2,2.13,2.13,0,0,1-2.44-1.06,3.14,3.14,0,0,1,.32-2,3.46,3.46,0,0,1-1.47.83c-.94.26-1.78-.32-2.14-1.46s.93-4,2.28-6.58A12.63,12.63,0,0,0,468,122a6.87,6.87,0,0,0-1.18,3.53,7.24,7.24,0,0,0-2.75-2.22c2.4,2.3,4.17,8.6,3.2,12.78a9.23,9.23,0,0,0,.8-8.29,1.86,1.86,0,0,0,2.19-.18,2.23,2.23,0,0,0,1.32,2.32,2.18,2.18,0,0,0,2.42,0s-.28.94,1,1.57,2.22-.07,2.9-1.28A2,2,0,0,1,474.9,130.49Z" style="fill:#e0e0e0"></path><path d="M474.9,130.49c-.59-.84,0-2.37,0-2.37a2.92,2.92,0,0,1-1.38,1.2,2.13,2.13,0,0,1-2.44-1.06,3.14,3.14,0,0,1,.32-2,3.46,3.46,0,0,1-1.47.83c-.94.26-1.78-.32-2.14-1.46s.93-4,2.28-6.58A12.63,12.63,0,0,0,468,122a6.87,6.87,0,0,0-1.18,3.53,7.24,7.24,0,0,0-2.75-2.22c2.4,2.3,4.17,8.6,3.2,12.78a9.23,9.23,0,0,0,.8-8.29,1.86,1.86,0,0,0,2.19-.18,2.23,2.23,0,0,0,1.32,2.32,2.18,2.18,0,0,0,2.42,0s-.28.94,1,1.57,2.22-.07,2.9-1.28A2,2,0,0,1,474.9,130.49Z" style="opacity:0.1"></path></g><path id="freepik--Chest--inject-25" d="M372.17,126.81c-10.35,2.31-13.46,3.31-18.36,4.44,0,0-9.12,25.68-4.73,43.57,1,4.12,3.32,17.36,3.31,24.92,0,7.22-.08,7-.85,17.24,0,0,13.85,9.66,42.81,6.71,22.75-2.31,24.33-10.32,24.33-10.32s-1.25-28.71-1.79-45.43c-.54-17-2.5-24.38-7-34.06-1.36-2.92-2.94-6-6.1-6.53-4.54-.71-12.31-.22-12.31-.22Z" style="fill:#ebebeb"></path><path d="M323.42,183.84c-1.72,5.67-1.46,8.07.39,13.71,1.16,3.53,2.29,7.08,3.41,10.62,1.5,4.71,4.08,12.57,4.55,14.42a15.49,15.49,0,0,1,.71,5.87,35.52,35.52,0,0,0-.37,6.1,25.38,25.38,0,0,0,1.27,7.16c.52,1.6.81,3.33,1.44,4.89a18.44,18.44,0,0,0,1.5,2.58,4.65,4.65,0,0,0,1.27,1.79c1.33,1,3,1.44,4.19,2.68.43.46.75,1,1.17,1.48,1.58,1.79,4.26,2.17,6.07,3.73,1,.88,1.73,2.1,2.82,2.91.35.25.84.46,1.19.21a1.15,1.15,0,0,0,.3-.42,3.78,3.78,0,0,0,.65-1.74,6.55,6.55,0,0,0-.53-2,19.68,19.68,0,0,0-1.82-3.57,52.76,52.76,0,0,1-3.17-5.31,10.13,10.13,0,0,1-.69-4.15c0-1.6-.06-3.19,0-4.79,0-.59.08-1.29.59-1.6a18.7,18.7,0,0,0,3.39,6.15c.67.72,4.44,3,4.8.71a1.14,1.14,0,0,0-.11-.57c-.45-1.27-1-2.5-1.49-3.77a33.55,33.55,0,0,1-1.28-3.86c-.87-4.11-1.74-7.5-4-11-4.05-6.26-7.39-35.73-7.39-35.73l8.09-23s6.72-9.23,7.08-20.83-3.86-15-3.86-15c-9.77,1.61-14.5,4.42-17.44,12.53S325.18,178.1,323.42,183.84Z" style="fill:#ebebeb"></path><path d="M321.71,187.77c.4-2.13,3.36-14.48,8.21-29.64s5.92-16.33,9.59-20.77,9.55-5.19,14.35-6.13c0,0,3.87,3.12,4.06,13.41A47.53,47.53,0,0,1,353,167l-10.41,23.42.35,3.71c-10.43-2.58-19,6.12-19,6.12C321.07,191.26,321.31,189.89,321.71,187.77Z" style="fill:#e0e0e0"></path><path d="M391.68,126.06s7,6.05,4.8,11.88-12.06,7-19.89,1.68-7.27-11.77-7.27-11.77l2.89-1a9.46,9.46,0,0,0,1.67,3.89c1.24,1.43,15.66,7.14,16,8.88,0,0,2.13-4.26,2.75-5.85s-2.65-8-2.65-8Z" style="fill:#f5f5f5"></path><path d="M402.35,90.15c2-5.71-.91-12.87-4.05-16.1-4.53-4.66-11.17-6.33-20.89-5-7.4,1-14.47,4.64-15.29,12.37-5.84,2.22-4.43,12-2.62,16.19,3.66,8.55,10.16,15.75,10.59,20.23Z" style="fill:#e0e0e0"></path><path d="M402.35,90.15c2-5.71-.91-12.87-4.05-16.1-4.53-4.66-11.17-6.33-20.89-5-7.4,1-14.47,4.64-15.29,12.37-5.84,2.22-4.43,12-2.62,16.19,3.66,8.55,10.16,15.75,10.59,20.23Z" style="opacity:0.2"></path><path d="M402.8,110.23c-.86,4.33-1.64,8.47-6.47,9.86a20.93,20.93,0,0,1-5.58.5v6.75c2.88,3.49,1.47,7.93-.86,12.32-4.06-4.87-15.6-6.78-20.32-12.63l-.39-17.41s-2.19,2.9-6.34.62a8.64,8.64,0,0,1-3.47-10.35c1.65-4.28,5.7-2.87,7-1.7s2.88,3.42,3.86,3a3.64,3.64,0,0,0,2.24-2.67,22.14,22.14,0,0,0,.69-8.1,9.15,9.15,0,0,0,2.62-2.38c1.54-2,1.51-4.26,1.43-6.3,8.27-3.28,19.15-3,22.87-.55,2.29,3.42,2.59,7.77,2.92,12.56C403.46,100.4,403.52,106.61,402.8,110.23Z" style="fill:#ebebeb"></path><path d="M390.75,120.59c-4.36.08-13.22-2.08-15.73-4.33s-3.85-7.12-3.85-7.12.58,5.22,2.58,7.85,6.88,3.86,9.66,4.48a37.31,37.31,0,0,0,7.34.81Z" style="fill:#e0e0e0"></path><path d="M385.08,95.68a1.81,1.81,0,0,1-1.83,1.81,1.86,1.86,0,1,1,1.83-1.81Z" style="fill:#e0e0e0"></path><path d="M399.3,91.19l-4-1.89a2.12,2.12,0,0,1,2.88-1.11A2.33,2.33,0,0,1,399.3,91.19Z" style="fill:#e0e0e0"></path><path d="M383.75,90l-3.62,2.53a2.12,2.12,0,0,1,.46-3A2.33,2.33,0,0,1,383.75,90Z" style="fill:#e0e0e0"></path><path d="M399.19,94.77a1.82,1.82,0,0,1-1.83,1.82,1.84,1.84,0,0,1-1.75-1.91,1.79,1.79,0,1,1,3.58.09Z" style="fill:#e0e0e0"></path><g style="opacity:0.2"><path d="M385.08,95.68a1.81,1.81,0,0,1-1.83,1.81,1.86,1.86,0,1,1,1.83-1.81Z"></path><path d="M399.3,91.19l-4-1.89a2.12,2.12,0,0,1,2.88-1.11A2.33,2.33,0,0,1,399.3,91.19Z"></path><path d="M383.75,90l-3.62,2.53a2.12,2.12,0,0,1,.46-3A2.33,2.33,0,0,1,383.75,90Z"></path><path d="M399.19,94.77a1.82,1.82,0,0,1-1.83,1.82,1.84,1.84,0,0,1-1.75-1.91,1.79,1.79,0,1,1,3.58.09Z"></path></g><polygon points="389.46 91.71 390.43 104.63 397.4 102.72 389.46 91.71" style="fill:#e0e0e0"></polygon><path d="M385.56,106.87a3.73,3.73,0,0,0,7.28,1.62Z" style="fill:#e0e0e0"></path><path d="M385.56,106.87a3.73,3.73,0,0,0,7.28,1.62Z" style="opacity:0.1"></path><path d="M386.5,108.74a3.6,3.6,0,0,1,4.05,2.41,3.72,3.72,0,0,1-4.84-2.17A3.45,3.45,0,0,1,386.5,108.74Z" style="fill:#f5f5f5"></path><path d="M389.89,139.66c-2.24-1.28-6.67-4.15-8.76-1.33s-3.59,6-5.2,5.62-7.58-4.36-9.7-8.58a17.22,17.22,0,0,1-1.75-6.69,49.59,49.59,0,0,0,3-5c.85-1.8.57-2.66,2-2.8l.1,4.47a38.26,38.26,0,0,0,5.61,5C379.11,133,386.88,133.55,389.89,139.66Z" style="fill:#e0e0e0"></path><path d="M389.89,139.66c1.28-1.22,2.15-3.31,4.3-2.76s5.34,5.35,5.37,4.21-1.55-9.25-3.23-11.62-4.12-6.9-5.58-6.78v4.63s1.64,3.5,1.4,5.43S390.11,137.79,389.89,139.66Z" style="fill:#e0e0e0"></path></g></g></g><g id="freepik--character-2--inject-25"><g id="freepik--character--inject-25"><g id="freepik--bottom--inject-25"><path d="M146.19,412.52c.45,4.44,1.21,7.48,2.95,10s4.86,3.23,8,2.34a11.8,11.8,0,0,0,7.75-7c1.17-3.13,1.16-6.52.28-10.62Z" style="fill:#e0e0e0"></path><path d="M146.19,412.52c.45,4.44,1.21,7.48,2.95,10s4.86,3.23,8,2.34a11.8,11.8,0,0,0,7.75-7c1.17-3.13,1.16-6.52.28-10.62Z" style="opacity:0.2"></path><path d="M158.9,383c.71,3,1.07,5,2,9,1.52,6.28,3.15,8.94,4.07,14.16,1.06,6,.44,8.87-1.9,12.41s-9.6,7.59-13.62,2.55c-3.27-4.11-3.59-8.8-3.55-14.81a129.6,129.6,0,0,0-1-15.16v-.1c-.16-1.6-.42-4.77-.65-6.36-.52-3.51,1.88-3.9,2.81-4.41a13.82,13.82,0,0,1,4.17-1.51,12.64,12.64,0,0,1,4.5.2C157.42,379.32,158.21,380.18,158.9,383Z" style="fill:#e0e0e0"></path><path d="M158.9,383c.71,3,1.07,5,2,9,1.52,6.28,3.15,8.94,4.07,14.16,1.06,6,.44,8.87-1.9,12.41s-9.6,7.59-13.62,2.55c-3.27-4.11-3.59-8.8-3.55-14.81a129.6,129.6,0,0,0-1-15.16v-.1c-.16-1.6-.42-4.77-.65-6.36-.52-3.51,1.88-3.9,2.81-4.41a13.82,13.82,0,0,1,4.17-1.51,12.64,12.64,0,0,1,4.5.2C157.42,379.32,158.21,380.18,158.9,383Z" style="opacity:0.1"></path><path d="M59.54,393.87c-.27,0-.61,3,1,4.2,1.79,1.4,7,3.64,13.76,2.58s10.37-3.19,13-5.46,6.36-5.48,9.41-6.23c2.84-.69,6.55-2.25,7.44-3.12s.65-4.66.65-4.66Z" style="fill:#e0e0e0"></path><path d="M59.54,393.87c-.27,0-.61,3,1,4.2,1.79,1.4,7,3.64,13.76,2.58s10.37-3.19,13-5.46,6.36-5.48,9.41-6.23c2.84-.69,6.55-2.25,7.44-3.12s.65-4.66.65-4.66Z" style="opacity:0.2"></path><path d="M101.57,369a1.73,1.73,0,0,1,.9.21,2.75,2.75,0,0,1,1,2.25,9.24,9.24,0,0,0,.33,2.23c.88,2.3,1.48,6.36.88,8.79-.47,1.92-5.58,3.65-8.52,4.83a38,38,0,0,0-9.45,6.15c-3.12,2.63-9.75,5.38-14.17,5.58-6.75.3-11.18-1.33-12.6-3.63-1.75-2.85-.49-4.57,7.16-8.27,1.45-.7,6.53-3.8,8.25-4.92a40,40,0,0,0,5.17-4,29.88,29.88,0,0,0,2.31-2.33,31.31,31.31,0,0,1,3.72-3.27,20.76,20.76,0,0,1,2.89-2.14A13,13,0,0,1,95,369c2-.13,3.82.26,5.78.06C101,369,101.3,369,101.57,369Z" style="fill:#e0e0e0"></path><path d="M101.57,369a1.73,1.73,0,0,1,.9.21,2.75,2.75,0,0,1,1,2.25,9.24,9.24,0,0,0,.33,2.23c.88,2.3,1.48,6.36.88,8.79-.47,1.92-5.58,3.65-8.52,4.83a38,38,0,0,0-9.45,6.15c-3.12,2.63-9.75,5.38-14.17,5.58-6.75.3-11.18-1.33-12.6-3.63-1.75-2.85-.49-4.57,7.16-8.27,1.45-.7,6.53-3.8,8.25-4.92a40,40,0,0,0,5.17-4,29.88,29.88,0,0,0,2.31-2.33,31.31,31.31,0,0,1,3.72-3.27,20.76,20.76,0,0,1,2.89-2.14A13,13,0,0,1,95,369c2-.13,3.82.26,5.78.06C101,369,101.3,369,101.57,369Z" style="opacity:0.1"></path><path d="M158.1,381.45c-1.5-12.94-.46-27.28-2.41-47.5h0c-.31-5.19-.73-10.75-1.29-15.68-1.9-16.59-4.79-22.17-5.16-25.37,0,0-.18-32.66-2.79-69-1.22-17.1-6.58-22.07-11.06-31l-50.92,2c-4.54,22.65-3.5,73.77-2.4,96.88.56,11.78,3.64,54.07,3.8,73.24,0,5.62-1.09,7.65-3.09,9.9-4.2,4.71-9.59,8.07-14.72,11.75-1.42,3.08,5.76,4.86,11.74,1.58,5.07-2.78,10.89-6.17,12.62-7.51,4.37-3.41,9.09-5.7,10-10.53.36-2,9.56-47,9.74-56.77.15-8.43-1.49-22.67-1.49-22.67l4.18-35.87s5.6,27.33,8.93,41.77,7,31.58,10.82,45.86h0c3.76,16.47,8.85,32.43,10,40.7.32,2,3.44,21.36,4.59,25.78s11.22,4.13,11.56-3.57C160.91,400.3,158.39,383.89,158.1,381.45Z" style="fill:#f0f0f0"></path><path d="M136.83,193.2c6.2,9.94,10.84,18.09,12.65,48.34s1.65,48.63,1.92,52.28,2.21,6.31,4.88,24.21,1.36,39.7,1.36,39.7-1.72,3.34-8.82,4.25c-6.55.83-9.91-1.42-9.91-1.42S130,327.4,127.06,315.07c-2.58-10.82-11.82-52.73-11.82-52.73l-3.13,29.06s2.69,10.58.56,26.46S107,349.31,107,349.31s-3.27,1.13-10.22,1.33a36.53,36.53,0,0,1-11.87-2.2s-3.36-45.73-4.09-63.6-2.15-67.53,3.5-89.16Z" style="fill:#e0e0e0"></path><path d="M150.36,303q-.42-1.55-.78-2.94c-2.16-8.29-2.19-24.24-2.73-38.09-.16-4.18-.33-8.51-.55-13.1-.9-18-3.16-38.16-13.15-50.79l-.74.54c6.71,8.5,9.88,20.5,11.5,32.95-9.43-.82-11.85-9.67-15.15-21.87-.45-1.66-.92-3.39-1.42-5.16l-.9.24q.75,2.66,1.42,5.15c3.29,12.17,5.9,21.81,16.16,22.57.68,5.49,1.08,11,1.34,16.41.23,4.59.4,8.92.56,13.1.54,13.9.57,29.89,2.75,38.27q.38,1.39.78,2.94c2.87,10.71,6.23,28.58,5.56,56.88a8.72,8.72,0,0,0,1-.61C156.55,331.42,153.22,313.65,150.36,303Zm-62-81.78c1.55,5.9,11.6,10.5,16.11,11.36l1.38,6c-.09,3.23-.19,6.62-.3,10.12-.58,19.28-1,39.17,0,43.66,2,8.7,1.45,17.07.32,28.44-1,10.27-2.78,23-3.89,29.5l.94-.12c1.11-6.45,2.56-17.79,4-29.33s1.83-19.59-.46-28.72c-1.09-4.34-.55-25.09,0-43.41.07-2.22.13-4.4.2-6.52l4.85,21.15.57,28.08,3.13-29.06L108,228.21S95.54,227.86,88.37,221.19Z" style="opacity:0.1"></path></g><g id="freepik--top--inject-25"><g id="freepik--arm--inject-25"><path d="M15.71,130.6a5.1,5.1,0,0,1,3.07,0,33.58,33.58,0,0,1,4.59,2c2.34,1,6.12,2.68,8.69,2.34.53-.08,1.59-.38.82-1a22.82,22.82,0,0,1-3-2.4,4.59,4.59,0,0,1-1.38-3.43,1.61,1.61,0,0,1,.44-1c.41-.36.72-.18,1.09,0a9.87,9.87,0,0,0,1.22.6l2.55,1.17c4.95,2.33,9.94,5.12,13.16,9.69.47.67,3.39,5.95,5.24,8.92C53.77,150.26,63,164,63,164S75.57,152.8,81.2,147.67c6-5.49,9.89-9.33,19.15-9.76l-8.91,29.48S75.11,179.87,71.9,182.12c-8.08,5.64-9.79,7.46-15,3.17-6.39-5.27-8.24-11.71-11-18.65C42.71,158.81,41.63,155,40,152.71s-3.91-2.26-5.56-2.62a25,25,0,0,1-6.57-2.19,22.92,22.92,0,0,1-5.19-3.15c-.65-.54-1.74-1.28-2.08-2.08a23.19,23.19,0,0,0-.67-2.36c-.46-.85-1.31-1.45-1.68-2.34a8.66,8.66,0,0,1-.35-2.23,3.83,3.83,0,0,0-1.86-2.5,3.54,3.54,0,0,1-1.16-1.15C14.52,131.3,15.05,130.85,15.71,130.6Z" style="fill:#f0f0f0"></path><path d="M34.76,136.89a16.8,16.8,0,0,0,6.43,6.74,6.93,6.93,0,0,1-4.49-1.8A6.52,6.52,0,0,1,34.76,136.89Z" style="fill:#e0e0e0"></path><path d="M101,137.38c-4.4.35-6.88-.17-12.81,3.78S63,163.25,63,163.25l-8.11-11.47s.54,4.74-4.65,7.52-7,1.17-7,1.17,4.68,13.89,6.88,17.48,4.92,7.37,9.11,9.44,7-.73,13.2-5.12,19.6-14,19.6-14Z" style="fill:#e0e0e0"></path><path d="M63,163.25c3.68,5.2,4,10.43,3.69,12.47a16.55,16.55,0,0,0-1.77-14.27Z" style="opacity:0.1"></path></g><path d="M120.64,133.61l15.47,4.81c2.65.91,12.69,7,9.18,22.14-1.16,5-2.74,12-4.17,19-1.09,5.36,2.92,15.67,6.15,32.08,0,0-13.26,10.55-39.63,7.58-20.12-2.27-22.3-9.8-22.3-9.8.56-18.73,2.22-26,2.18-33.08a17.16,17.16,0,0,1-3.06-9.95c-.13-6.68,1.62-10.27,7.61-17.84,5.69-7.2,9.2-11,9.2-11Z" style="fill:#fafafa"></path><path d="M108,135.48c-.72.27-7,1.9-7,1.9-8.12,6.87-13.38,14.9-15.36,19.46-2.37,5.47-2.69,11.5-2.83,20.09-.12,7.48-2.13,29.35-2.13,40.23.81,2.9,5.7,5.61,5.7,5.61.35,3.8,2-37.38,4-57.27C92.94,148,106,139,109,137Z" style="fill:#ebebeb"></path><path d="M127.86,134.21l0,2.27c-3.86,12.72-3.75,29-3.84,40.93-.19,25,3.45,51.55,3.45,51.55s15.69,2.79,22.76-6.76c0,0-4.13-15.26-6.5-29.76-1.41-8.59,4.31-29.61,2.83-42.05-.62-5.19-2-9.51-5.92-10.73C137.47,138.65,127.86,134.21,127.86,134.21Z" style="fill:#ebebeb"></path><path d="M96.91,142.74l-.14.11,0,.19.49,2c-2.19,1.83-4.36,3.67-6.5,5.55l-.12.11,0,.15c-.36,2.55-.7,5.1-1,7.67-.13,1.28-.27,2.56-.37,3.84s-.19,2.58-.21,3.87l1.21-7.63c.41-2.48.78-5,1.15-7.46q3.27-2.82,6.46-5.7l.18-.16-.06-.21-.62-2c.82-.76,1.65-1.5,2.46-2.28s1.72-1.62,2.56-2.45c-1,.71-1.87,1.45-2.8,2.18S97.83,142,96.91,142.74Zm35.86,1.37-.06-.17c-.45-1.25-.89-2.49-1.36-3.73s-.92-2.48-1.4-3.71c.34,1.28.72,2.55,1.09,3.82s.72,2.4,1.09,3.6l-3.2,2.51-.21.16.1.26,2.6,6.93c-.79,1.65-1.49,3.33-2.21,5s-1.45,3.48-2.1,5.25-1.27,3.56-1.82,5.36a32.94,32.94,0,0,0-1.23,5.53,41.93,41.93,0,0,1,1.65-5.39c.63-1.77,1.32-3.51,2.05-5.24s1.43-3.48,2.2-5.19,1.55-3.43,2.31-5.14l.08-.17-.06-.16-2.69-6.81,3-2.59Z" style="fill:#e0e0e0"></path><g id="freepik--Head--inject-25"><g id="freepik--Hair--inject-25"><path d="M109.63,118.38c-.76-1.74-1.4-3.71-2.69-5.15s-3-2.26-4.55-3.38l-4.87-3.59c-5.9-3.86-7.6-12.51-5.39-16.42,5.1-9,17-11.32,23.3-11.12,12,.37,17.52,4,18.22,10.23,3.67.32,5.64,2.22,7.36,5,1.4,2.25,1.72,4,1.35,10.7a14.39,14.39,0,0,0,.56,4.76c.74,2.13,2.44,4.34,3,6.51a10.17,10.17,0,0,1,0,6.84,9,9,0,0,1-5.07,5.16,6.56,6.56,0,0,0,0-5.45c-.44,2.39-1.14,5.14-3.36,6.13s-4.94-.41-7.4,0c-1.6.28-3,1.34-4.59,1.64-.75.14-2.76.25-3.22-.57s.45-2.13,0-3.12c-.57-1.26-3.48-2-4.75-2.6C115.17,122.75,110.8,121.06,109.63,118.38Z" style="fill:#e0e0e0"></path><path d="M109.63,118.38c-.76-1.74-1.4-3.71-2.69-5.15s-3-2.26-4.55-3.38l-4.87-3.59c-5.9-3.86-7.6-12.51-5.39-16.42,5.1-9,17-11.32,23.3-11.12,12,.37,17.52,4,18.22,10.23,3.67.32,5.64,2.22,7.36,5,1.4,2.25,1.72,4,1.35,10.7a14.39,14.39,0,0,0,.56,4.76c.74,2.13,2.44,4.34,3,6.51a10.17,10.17,0,0,1,0,6.84,9,9,0,0,1-5.07,5.16,6.56,6.56,0,0,0,0-5.45c-.44,2.39-1.14,5.14-3.36,6.13s-4.94-.41-7.4,0c-1.6.28-3,1.34-4.59,1.64-.75.14-2.76.25-3.22-.57s.45-2.13,0-3.12c-.57-1.26-3.48-2-4.75-2.6C115.17,122.75,110.8,121.06,109.63,118.38Z" style="opacity:0.1"></path><path d="M111.41,93.52c-.45-5.77-6.84-11.64-14.35-8.08a11.53,11.53,0,0,0-6.54,9.31,14.51,14.51,0,0,0,.39,5.33c.55,2.12,2,3.51.61,5.75-.76,1.21-1.93,2.13-2.78,3.3a7.91,7.91,0,0,0,1.72,10.64,5.81,5.81,0,0,1,2.28-6.59c-1.33,2.29-.76,5.59-.54,7.4C93,127.23,98,131,103.26,132.33c4.45,1.15,13.09-.13,13.86-3.85.34-1.68-2.66-5-2.79-6.75q-.24-3.08-.52-6.14c-.61-6.7-1.34-13.38-2.15-20C111.58,94.87,111.5,94.19,111.41,93.52Z" style="fill:#e0e0e0"></path><path d="M111.41,93.52c-.45-5.77-6.84-11.64-14.35-8.08a11.53,11.53,0,0,0-6.54,9.31,14.51,14.51,0,0,0,.39,5.33c.55,2.12,2,3.51.61,5.75-.76,1.21-1.93,2.13-2.78,3.3a7.91,7.91,0,0,0,1.72,10.64,5.81,5.81,0,0,1,2.28-6.59c-1.33,2.29-.76,5.59-.54,7.4C93,127.23,98,131,103.26,132.33c4.45,1.15,13.09-.13,13.86-3.85.34-1.68-2.66-5-2.79-6.75q-.24-3.08-.52-6.14c-.61-6.7-1.34-13.38-2.15-20C111.58,94.87,111.5,94.19,111.41,93.52Z" style="opacity:0.2"></path></g><path d="M126.81,133.46c.07-2,.8-11.82.8-11.82,0,.74,3.54,2.91,6.91-.75s3.16-9.19.87-11.44c-3.54-3.49-8.85-.66-9.6,4.12-2.8,1.41-3.68-2-1.77-5.92-.14-3.18-3.42-3.69-3-10.61-.27-3.45-5.46-6-9.6-3.52a7.48,7.48,0,0,0-12.18,1.56c-1.92,4-2.5,4.06-2.16,9.09.13,1.78-1.37,3.91-1.58,6.27-.9,10.45,1.49,16.48,4.76,18.39,2.19,1.29,5.92,1.69,8.13,1.51l-.08,2.7h0c-.14,1.65,0,3.14-1.65,3.6-.72,1.05-3.82,10.37-3.52,23.32,10.47-10.56,23.31-22.13,24.09-23.72C126.84,135.59,126.74,135.43,126.81,133.46Z" style="fill:#f0f0f0"></path><path d="M113.68,117.08l-5.44,1.23a2.74,2.74,0,0,0,3.28,2.2A2.92,2.92,0,0,0,113.68,117.08Z" style="fill:#e0e0e0"></path><path d="M113.68,117.08l-5.44,1.23a2.74,2.74,0,0,0,3.28,2.2A2.92,2.92,0,0,0,113.68,117.08Z" style="opacity:0.2"></path><path d="M113.24,118.28a3.08,3.08,0,0,0-3.27,2.11,2.63,2.63,0,0,0,1.55.12,2.85,2.85,0,0,0,2.12-2.15A2.57,2.57,0,0,0,113.24,118.28Z" style="fill:#fafafa"></path><path d="M99.28,101.59l4.28-1.2a2.14,2.14,0,0,0-2.67-1.58A2.33,2.33,0,0,0,99.28,101.59Z" style="fill:#e0e0e0"></path><path d="M117.84,103.16l-4.1-1.85a2.16,2.16,0,0,1,2.9-1.18A2.38,2.38,0,0,1,117.84,103.16Z" style="fill:#e0e0e0"></path><path d="M103.23,106.12a1.9,1.9,0,0,1-1.69,2,1.79,1.79,0,0,1-2-1.61,1.91,1.91,0,0,1,1.69-2A1.79,1.79,0,0,1,103.23,106.12Z" style="fill:#e0e0e0"></path><path d="M116.2,106.93a1.91,1.91,0,0,1-1.68,2,1.8,1.8,0,0,1-2-1.62,1.9,1.9,0,0,1,1.69-2A1.78,1.78,0,0,1,116.2,106.93Z" style="fill:#e0e0e0"></path><g style="opacity:0.2"><path d="M99.28,101.59l4.28-1.2a2.14,2.14,0,0,0-2.67-1.58A2.33,2.33,0,0,0,99.28,101.59Z"></path><path d="M117.84,103.16l-4.1-1.85a2.16,2.16,0,0,1,2.9-1.18A2.38,2.38,0,0,1,117.84,103.16Z"></path><path d="M103.23,106.12a1.9,1.9,0,0,1-1.69,2,1.79,1.79,0,0,1-2-1.61,1.91,1.91,0,0,1,1.69-2A1.79,1.79,0,0,1,103.23,106.12Z"></path><path d="M116.2,106.93a1.91,1.91,0,0,1-1.68,2,1.8,1.8,0,0,1-2-1.62,1.9,1.9,0,0,1,1.69-2A1.78,1.78,0,0,1,116.2,106.93Z"></path></g><path d="M102.56,113.12l5.71,1.86,1.16-10.49C107.1,104.59,104.83,108.51,102.56,113.12Z" style="fill:#e0e0e0"></path><path d="M108.38,130.34a21.74,21.74,0,0,0,11.55-2.93,13,13,0,0,0,4.32-4.41s-1.13,3.85-3.76,5.85c-4.88,3.71-12.16,3.43-12.16,3.43Z" style="fill:#e0e0e0"></path></g><path d="M103.13,160c-2.27-5.73-2.43-8.05-1.66-10.91s3.35-12.17,6.8-15.61l-.34,4.49A87.07,87.07,0,0,0,103.13,160Z" style="fill:#f5f5f5"></path><path d="M103.13,160a28.16,28.16,0,0,0,2.76-5.91c.78-2.74,1.7-4.24,6.87-7.84s13-11.86,14.11-13.84L127,131s.9.17.92,2.66c0,1.7,0,2.78,0,2.78C124.44,142.22,113.48,151.2,103.13,160Z" style="fill:#f5f5f5"></path><g id="freepik--arm--inject-25"><g id="freepik--arm--inject-25"><path d="M154.31,231.38c1.26-1.37,2.87-2.58,3.39-4.44a3.16,3.16,0,0,0-.45-2.83,1.38,1.38,0,0,1-.34-.52,1.27,1.27,0,0,1,0-.51,3.45,3.45,0,0,0-.14-2.11,2.16,2.16,0,0,0-1.35-1.14,5,5,0,0,0,0-3.19c-.42-1.21-1.67-2.18-2.49-.82a11.53,11.53,0,0,0-.95,2.12,25.41,25.41,0,0,0-1.21,5.65c-.2,2-.68,7.68,2.43,7.95C153.45,231.56,154.13,231.57,154.31,231.38Z" style="fill:#e0e0e0"></path><path d="M142.13,140.61c12.3,3.41,12.65,7.52,19.77,17.32a189.78,189.78,0,0,1,14,22.2c3.11,5.73,3.55,7.79-2.17,15.13-2.82,3.62-5.71,6.68-11,12.5-3.38,3.71-7.05,7.5-10.58,11.25a4.35,4.35,0,0,0-1,3.89,22.12,22.12,0,0,1,.63,2.39,20.16,20.16,0,0,1-.26,3.18,2.77,2.77,0,0,0,1.26,2.73,3.08,3.08,0,0,0,1.51.18,11.06,11.06,0,0,1-2.92,1.59,4.5,4.5,0,0,1-3.25-.11c-1-.47-1.71-1.39-2.74-1.7-.56-.17-1.16-.14-1.72-.29a2.84,2.84,0,0,1-1.48-1c-.59-.75-.83-1.82-1.67-2.27a11.43,11.43,0,0,0-1.29-.42,2.89,2.89,0,0,1-1.6-2.14,8,8,0,0,1,.06-2.76,69.85,69.85,0,0,1,1.51-7.32,7.18,7.18,0,0,1,1.18-2.26c.56-.8,1.1-1.63,1.7-2.41,4.11-5.23,14.6-24.93,14.6-24.93l-14.6-18.84S134.4,151,142.13,140.61Z" style="fill:#f0f0f0"></path></g><path d="M141.34,139.9c2.26.59,6.69,1.22,10,3.67s6.06,7.41,8.81,11.17,9.58,13.62,14.53,22.23,4.16,9.91,3.37,12.25-8.44,12.08-14.88,18.86c0,0-5.13.34-8.72-2.11s-5.24-7.63-5.24-7.63l7.07-13.11-14.19-17.57a39,39,0,0,1-3.71-16.57C138.35,144,141.34,139.9,141.34,139.9Z" style="fill:#e0e0e0"></path><path d="M156.26,185.23c3.63,3.56,9.7,4,11.78,3.88a13,13,0,0,1-12.89-1.83Z" style="opacity:0.1"></path></g></g></g></g><g id="freepik--speech-bubble--inject-25"><g id="freepik--speech-bubble--inject-25"><g id="freepik--speech-bubble--inject-25"><path d="M238.8,51.31a24.48,24.48,0,0,1,7,16.66l-.1,2.81a24.58,24.58,0,0,1-49-.58l0-2.81A24.58,24.58,0,0,1,238.8,51.31Z" style="fill:#fff"></path><path d="M202.52,49.44a26.68,26.68,0,0,0,33.93,41L244,93.81a1.55,1.55,0,0,0,2.06-2l-3.27-7.62a26.68,26.68,0,0,0-40.27-34.73Zm36.26,1.83a24.54,24.54,0,0,1,7,16.65l-.1,2.82a24.58,24.58,0,0,1-49-.49l0-2.82a24.59,24.59,0,0,1,42.14-16.16Z" style="fill:#e0e0e0"></path></g><g id="freepik--Check--inject-25"><path d="M217.59,83a3.73,3.73,0,0,1-2.73-1.18l-8.47-9a3.74,3.74,0,1,1,5.45-5.11l5.51,5.88,13-16.5a3.74,3.74,0,1,1,5.87,4.64l-15.71,19.9A3.75,3.75,0,0,1,217.75,83Z" style="fill:#FF0000"></path></g></g></g><g id="freepik--character-1--inject-25"><g id="freepik--character--inject-25"><g id="freepik--bottom--inject-25"><g id="freepik--bottom--inject-25"><polygon points="247.13 414.57 243.47 412.64 247.16 411.71 247.13 414.57" style="fill:#263238"></polygon><path d="M210.12,420.49s44.34-18.75,44.81-15.76a4.6,4.6,0,0,1-.07,1.79l.12-.16-.95,5.52a13,13,0,0,1-6.9,2.69c0-.26,0-1.91,0-2.86a23,23,0,0,0-3.92,2c-2.86,1.8-4.75,5-7.83,8.74-2.25,2.72-6.16,3.91-11.92,4.58-6.2.72-11.61-.62-13.1-2.33C209.21,423.3,209.88,420.87,210.12,420.49Z" style="fill:#263238"></path><path d="M211.35,419.5c.44-.44,2-2.13,4.21-4a82.87,82.87,0,0,1,6.47-5.26,23.32,23.32,0,0,0,3.2-2.52,33.46,33.46,0,0,0,2.25-2.52,47.69,47.69,0,0,0,5.53-8.89c.73-1.49,2.06-4.77,1.86-10.92-.29-9.33-1-12.71-.83-18.76l20.83,3.41c-.7,3.34-1.55,10.81-2,14.62-.64,5.78-1.5,6.31.59,12.16.62,1.72,1.57,3.38,1.6,5.21.07,3-2.32,5.47-5,6.85-2.18,1.15-4.66,1.6-6.78,2.83a21.68,21.68,0,0,0-5.6,5.25c-1.52,1.86-2.76,4.07-4.87,5.35a19.06,19.06,0,0,1-7.2,2.29,38.22,38.22,0,0,1-9.61.24C211.54,424.4,208.2,422.65,211.35,419.5Z" style="fill:#b16668"></path><path d="M228.7,410.87a8.21,8.21,0,0,0-6.78-.8c-3.3,2.49-6,4.7-8,6.25-2.34,1.88-4.4,3.6-4.37,5.82,0,3.49,13.47,4.89,21.08,1.79a9.37,9.37,0,0,0,5.44-4.54S235.12,414.48,228.7,410.87ZM254.61,399c-1.09-2.27-1.5-3.42-1.5-3.42-2.65,1.36-7.37,7.81-5.46,14.48a10,10,0,0,0,6.72-4.34A6.32,6.32,0,0,0,254.61,399Z" style="fill:#37474f"></path><path d="M291,406.66c-1.23,2,.45,9.51.22,14.87-.21,4.87-1.14,12.46.11,18.15s6.19,12,12.83,6.56c4.12-3.35,5.76-7.35,6.26-14.36.35-4.87-1.66-11.58-3.38-17.53-2-7-2.79-10.68-2.79-10.68Z" style="fill:#263238"></path><path d="M304.42,370.65c.59,11.35-.66,19.32-.67,26.59a51.09,51.09,0,0,0,1.13,9.8c1,4.63,2.67,11.06,3.38,14.06,1,4.19,1.74,6.83.33,11.55a6.28,6.28,0,0,1-.46,1.07c-2,3.9-7.12,6.88-8.77,6.42a2.83,2.83,0,0,1-2.89,1,3.37,3.37,0,0,1-.55-.12,4.33,4.33,0,0,1-.56-.22,5.63,5.63,0,0,1-2.77-3.54,9,9,0,0,1-.28-1c-1.25-5.83-.42-9.62-.32-11.9.1-2.64-.08-6-.36-10.25s-1.41-17.62-2.95-24c-1.14-4.45-2.56-10-4.06-16Z" style="fill:#b16668"></path><path d="M309.32,426.56c-4.08-1.76-15.86-1.9-17.69,3.85,0,5.4,0,9.06,3.46,13.73,4.59,6.2,10.44-.47,12.67-4.7S309.9,429.46,309.32,426.56Z" style="fill:#37474f"></path><path d="M286.52,210.76c5.83,10.23,13.69,24.45,14.19,47.49C301.38,289,301.8,311,302,314.66s2.63,10.46,4.83,28.67-.77,53-.77,53S304,400.4,297,401.15c-6.42.68-9.4-2.36-9.4-2.36s-9.66-48.77-12.28-59.72-11.47-58.79-11.47-58.79l-4,35.69S262,326,260.3,342,253.21,389,253.21,389s-2.94,3-9.77,2.7a13.87,13.87,0,0,1-9.35-3.8s-5.35-61.14-5.65-79.27.93-69.7,6.18-96.63Z" style="fill:#37474f"></path><path d="M240.3,244.84c2.17,7.37,11,11.73,15.4,12.7l4.59,24.2L259.86,316l4-35.69-4.27-25.81S245.92,252.75,240.3,244.84Zm44.48,87.46c-1.78-9.38-4-30.73-5.29-40.23s-2.44-19-3.79-28.53c.6,9.58,1.32,19.15,2.29,28.7s3.14,30.95,4.89,40.42,3.75,18.81,5.75,28.2,4.07,18.74,6.29,28.08q-2.22-14.22-4.81-28.37C288.42,351.13,286.6,341.68,284.78,332.3ZM236.6,288.58l1.14-25Q236,276,235.1,288.49c-.61,8.35-1.44,23-1.33,31.43.42,8.41,1.2,16.7,2,25s1.8,16.61,2.92,24.9q-.56-12.53-1.41-25l-.84-12.5c-.28-4.15-.61-8.33-.76-12.46s.3-14.62.42-18.78S236.44,292.75,236.6,288.58Z" style="fill:#263238"></path></g></g><g id="freepik--top--inject-25"><path d="M185.63,221.74a59.82,59.82,0,0,0-6.49-1.69c-1.66-.37-2.66.26-6.73,2.35-4.23,2.17-5,3.2-5.41,4.47a2.76,2.76,0,0,0,1,3.08c-1.33.78-1.28,3.19.55,4.11a2.2,2.2,0,0,0,.77,3.58c-.66.7-.45,3.46,2,4.15a45,45,0,0,0,6.46,1.06Z" style="fill:#9a4a4d"></path><g id="freepik--Flag--inject-25"><path d="M197.24,408.37,160.37,76.51l2.82-.32,36.88,331.89C200.15,409.2,197.34,409.46,197.24,408.37Z" style="fill:#455a64"></path><path d="M163.5,78.92c13.06,3.12,22.2,10.4,29.88,28.77,5.45,13,15.82,27.9,25.19,28.09l-5.25,43.32s-11.85,0-22.38-10.71-12-29.51-20.86-30.26c-1.36-12.16-4.23-38-4.23-38Z" style="fill:#FF0000"></path><path d="M198.73,150c-.19-.33-.29-.69-.47-1s-.38-.52-.55-.77c-.35-.5-.72-1-1.08-1.5-.66-.92-1.3-1.87-1.91-2.83a55.18,55.18,0,0,1-3.32-6,63.89,63.89,0,0,1-4.61-14.2,53.28,53.28,0,0,1-1-8.25c0-.13-.17-.17-.17,0a49.14,49.14,0,0,0,1.66,14.69,54,54,0,0,0,5.78,13.45c.69,1.15,1.42,2.27,2.2,3.35.38.54.78,1.06,1.19,1.58.25.3.5.61.77.89s.79.61,1.16.94A.23.23,0,0,0,198.73,150Z" style="opacity:0.15"></path><path d="M182.07,142.86c-3.56-10-8.28-13.47-11.06-25.15s-7.51-38.79-7.51-38.79l2.35,21.18s2.87,25.87,4.23,38c8.88.75,10.26,19.48,20.86,30.26s22.38,10.71,22.38,10.71c-4.2-.8-9.59-1.59-18.5-10.1C188.41,162.88,185.63,152.87,182.07,142.86Z" style="opacity:0.1"></path><path d="M177.8,242.85c.8,0,1.87-1.22,2.64-2s1.76-1.82,1.7-2.55c-.07-1-1.51-1.09-1.51-1.09a4.7,4.7,0,0,0,.73-.6c.94-.85-.67-2.1-2.14-1.61,0,0,.63-.35.66-.76a1.88,1.88,0,0,0-2-1.88c1.05-.48.73-1.95.06-3.1h-.78C176.08,233.32,176.45,237.92,177.8,242.85Z" style="fill:#9a4a4d"></path><path d="M169.33,237.64a20.5,20.5,0,0,0,2.88.91c1,.25,2,.51,2.94.66a4.47,4.47,0,0,0,2.82-.6c.9-.43,1.79-.92,2.66-1.44a15.57,15.57,0,0,1-2.54,1.69,4.54,4.54,0,0,1-3,.71,21.52,21.52,0,0,1-3-.75A13.51,13.51,0,0,1,169.33,237.64Z" style="opacity:0.30000000000000004"></path><path d="M179.22,235a23.44,23.44,0,0,1-2.59,1.06,4,4,0,0,1-1.43.2,11.59,11.59,0,0,1-1.38-.32,53.66,53.66,0,0,1-5.26-1.84c1.81.43,3.58,1,5.36,1.48a11.22,11.22,0,0,0,1.32.35,4,4,0,0,0,1.31-.15C177.44,235.52,178.32,235.21,179.22,235Z" style="opacity:0.30000000000000004"></path><path d="M177.92,232.32a5.42,5.42,0,0,1-2.59.48,16,16,0,0,1-2.52-.78A52.19,52.19,0,0,1,168,230c1.67.5,3.29,1.13,4.93,1.73a22.79,22.79,0,0,0,2.44.85A6.72,6.72,0,0,0,177.92,232.32Z" style="opacity:0.30000000000000004"></path><path d="M164.87,76.64a3.14,3.14,0,1,1-2.81-3.44A3.13,3.13,0,0,1,164.87,76.64Z" style="fill:#37474f"></path></g><path d="M213.65,229.17s-10.63,4-17.43,6.58c-5.2,2-5.28,2.75-7,4.47-1.94,1.92-7.53,2.19-7.53,2.19h0l-.29-2.61a2.47,2.47,0,0,0,.77-1.52,1.23,1.23,0,0,0-1-1l-.05-.39.33-.28c.56-.53.19-1.19-.53-1.52l-.25-2.2a15.84,15.84,0,0,1-2.14-2.57h0a5.68,5.68,0,0,1-.46-1.05,6,6,0,0,0-.65,0,7.49,7.49,0,0,0-3.61,1c-.92,1.58-2.33,3.49-4.63,3.44-1.88-.06-1.86-.93-.89-2.82,1.29-2.61,1.75-3.87,2.78-5.17.7-.89,3.42-2.12,5.62-3,1-.41,1.94-.75,2.49-1a2,2,0,0,1,.26-.09c1.58-.54,2.94-.44,5.86.05a10,10,0,0,0,5.57-.33c1.54-.41,9.64-4.77,9.64-4.77Z" style="fill:#b16668"></path><path d="M188.49,236a13.6,13.6,0,0,1-6.93-.31,1.38,1.38,0,0,0-.72-.66l-.25-2.2C182.17,235.08,185.56,236.1,188.49,236Z" style="fill:#9a4a4d"></path><path d="M198,217.7l-4.32,2.08a10.59,10.59,0,0,1,5.11,6.73,28.25,28.25,0,0,1,.5,8.27l5-1.75a22.57,22.57,0,0,0-1-8.39A16.4,16.4,0,0,0,198,217.7Z" style="fill:#fafafa"></path><path d="M240.8,159c-9.68,1.47-12.32,7.94-18.31,25.5-5.07,14.84-7.49,21.6-7.49,21.6l-18.65,12.22s7.67,1.87,6.53,15.33c0,0,10.13-3.53,22-7.7,6.52-2.31,6.49-5.52,9.4-12.28,3.33-7.74,7.6-22.29,7.6-22.29Z" style="fill:#FF0000"></path><path id="freepik--chest--inject-25" d="M293.91,224.24c1.81-3.08-5-12.56-4.16-21.29.53-5.55,4.77-17.13,4.77-17.13a48.35,48.35,0,0,1-9.69-36.09l-13.29,2.81-20.37,4-8,2.19c-2.74,2.36-7.76,6.07-11.79,11.77-5.83,8.23-5.8,18.83.15,25.59.06,1.32.79,19.51.13,26.88-.18,2.05-1.43,4.64-.15,7.28C237.25,239.68,274.5,244.73,293.91,224.24Z" style="fill:#fafafa"></path><path d="M247.45,100a15.83,15.83,0,0,0,3.71-.24c2.24-.5,3.1-1.34,4.58-3.09,3.15-3.71,8.95-3.54,12.43-.34,1.19,1,2.45,2.46,4,2.16.84-.16,1.83-.91,3.34-1.36a6.07,6.07,0,0,1,6.32,2.25c.72,1.2.58,2.73.68,4.13a3.68,3.68,0,0,0,2.1,3.25,2.2,2.2,0,0,0,2.92-1.8c1.53.88,1.65,3.35.58,4.78a6.21,6.21,0,0,1-4.63,2.14c3.21,0,6.59,3,5.64,6.53-.43,1.55-1.72,2.81-1.77,4.43-.08,2,1.66,3.81,2,5.79a6.91,6.91,0,0,1-.88,4.84,7.48,7.48,0,0,1-2.47,1.95,6.65,6.65,0,0,0-1.75,1.13,5.16,5.16,0,0,0-.91,1.44c-.81,1.71-1.53,3.55-3,4.8-1.86,1.62-4.52,1.88-7,1.88s-5-.17-7.3.82a17.85,17.85,0,0,0-2.95,1.79c-3,2-6.71,3.74-10.16,2.62-1.58-.51-2.92-1.57-4.45-2.24a9.62,9.62,0,0,0-4-.81c-1.45,0-2.77.55-4.19.6a5.73,5.73,0,0,1-4.61-2.26,7.22,7.22,0,0,1-1.39-5,5.25,5.25,0,0,0-2.35,4.9,7.21,7.21,0,0,1-1.61-8.41c.67-1.32,1.75-2.41,2.41-3.74,1.23-2.44-.23-5-1.34-7.21-1.31-2.57-2.21-5.82-.6-8.21s4.77-2.9,6.16-5.24c.9-1.5.81-3.37,1.08-5.1.43-2.88,2.13-5.76,4.87-6.71A12.9,12.9,0,0,1,247.45,100Z" style="fill:#263238"></path><g id="freepik--head--inject-25"><g id="freepik--head--inject-25"><g id="freepik--head--inject-25"><path d="M247.6,140.43a5.22,5.22,0,0,1-5.38-1.21c-3.43-2.88-3.74-6.53-2.65-8.94.9-2,2.51-3,5.29-2.67,2.49.32,3,1.48,4,2.87s4.25.82,2.76-5.09c3.84-2.48.39-8.27,2.23-11.37,2.88-4.85,8.75-4.48,10.74-3.69a7.51,7.51,0,0,1,7.72-1.54c2.95,1.11,5.2,4,7.6,14.51,2.45,10.74,1.33,18.9-.87,21.54-1.52,1.82-3.86,3.21-7.71,3.5l.33,6.72s-3.84,9.88-16.94,10.54c-9.1.46-3.56-9-3.56-9l-1.65-18S249.66,139.75,247.6,140.43Z" style="fill:#b16668"></path></g><path d="M261.41,118.65,258,121.39a2.29,2.29,0,0,1,.35-3.15A2.11,2.11,0,0,1,261.41,118.65Z" style="fill:#263238"></path><path d="M276.56,118.55l-4.23-1.12a2.09,2.09,0,0,1,2.6-1.6A2.3,2.3,0,0,1,276.56,118.55Z" style="fill:#263238"></path><path d="M263.84,135.78l6.18.8a3,3,0,0,1-3.37,2.74A3.29,3.29,0,0,1,263.84,135.78Z" style="fill:#9a4a4d"></path><path d="M267.83,139.24a3.21,3.21,0,0,0-3.25-2.32,3.11,3.11,0,0,0-.61.1,3.28,3.28,0,0,0,2.68,2.3A3.09,3.09,0,0,0,267.83,139.24Z" style="fill:#f28f8f"></path><path d="M276.65,121.89a1.77,1.77,0,1,1-2.42-.7A1.77,1.77,0,0,1,276.65,121.89Z" style="fill:#263238"></path><path d="M263.53,124a1.77,1.77,0,1,1-2.42-.69A1.79,1.79,0,0,1,263.53,124Z" style="fill:#263238"></path><path d="M267.24,121.39l2.43,11.37,6.05-2.68C273.56,125.79,269.94,123.21,267.24,121.39Z" style="fill:#9a4a4d"></path></g><path d="M271.34,148.34c-5.54.53-15.76,1.18-18.84-8.89a11.58,11.58,0,0,0,9.25,10.84,37.69,37.69,0,0,0,9.7.4Z" style="fill:#9a4a4d"></path></g><path d="M251.17,156.57,240.8,159c-7.17,6.38-14.68,16.26-14.55,24.3a22.49,22.49,0,0,0,4.52,13.23s1.41,16.27.23,25-4.75,31.67-4.75,31.67A61.87,61.87,0,0,0,238,256.76c1.08-11.19,2.69-52,1.65-61.73S237.16,170,251.17,156.57Z" style="fill:#FF0000"></path><path d="M251.17,156.57,240.8,159c-7.17,6.38-14.68,16.26-14.55,24.3a22.49,22.49,0,0,0,4.52,13.23s1.41,16.27.23,25-4.75,31.67-4.75,31.67A61.87,61.87,0,0,0,238,256.76c1.08-11.19,2.69-52,1.65-61.73S237.16,170,251.17,156.57Z" style="opacity:0.30000000000000004"></path><path d="M238.78,199.65c-.84-2.53-1.74-5-2.64-7.54s-1.78-5-2.62-7.52a29.83,29.83,0,0,1-1-3.8c-.29-1.2.49-2.28,1.28-3.31a35.61,35.61,0,0,1,5.7-5.4l.2-.16-.07-.23a13.23,13.23,0,0,1-.32-4.22,11.17,11.17,0,0,1,1.15-4.08,12.68,12.68,0,0,1,2.74-3.29,20.32,20.32,0,0,1,3.58-2.5,18.05,18.05,0,0,0-3.76,2.28,11.65,11.65,0,0,0-3,3.27,11.5,11.5,0,0,0-1.36,4.26,12.33,12.33,0,0,0,.27,4.48l.12-.39a34.88,34.88,0,0,0-5.9,5.5,9,9,0,0,0-1.11,1.75,2.82,2.82,0,0,0-.19.51,1.7,1.7,0,0,0-.13.55,3.69,3.69,0,0,0,.05,1.11,29.31,29.31,0,0,0,1.11,3.88c.85,2.54,1.87,5,2.85,7.47S237.75,197.19,238.78,199.65Z" style="opacity:0.2"></path><path d="M271.6,151.84s-3,4.56-6.62,15-7.15,20-6.33,29.35,3.24,61.65,3.24,61.65,16.73.06,28.51-4.92l-1.69-15.78,4.59,14.42s7.65-3.22,9.65-5.34c-4.26-21.26-11.44-31.82-12.37-39-.63-4.93,3.8-14.77,6.51-26.89,2.23-10-11.76-32.76-11.76-32.76C283.13,149.54,278.85,151,271.6,151.84Z" style="fill:#FF0000"></path><path d="M271.6,151.84s-3,4.56-6.62,15-7.15,20-6.33,29.35,3.24,61.65,3.24,61.65,16.73.06,28.51-4.92l-1.69-15.78,4.59,14.42s7.65-3.22,9.65-5.34c-4.26-21.26-11.44-31.82-12.37-39-.63-4.93,3.8-14.77,6.51-26.89,2.23-10-11.76-32.76-11.76-32.76C283.13,149.54,278.85,151,271.6,151.84Z" style="opacity:0.30000000000000004"></path><path d="M260.65,198.87a21.84,21.84,0,0,1,3.17-6.77c1.35-2.11,2.85-4.12,4.4-6.1.75-1,1.54-2,2.32-3l1.18-1.47c.2-.26.4-.49.6-.78a1.53,1.53,0,0,0,.15-.23c0-.12.09-.25.13-.37a2.79,2.79,0,0,0,0-.64,11.53,11.53,0,0,0-1.61-3.63c-.68-1.08-1.41-2.12-2.19-3.14v.63l3.53-4.19,1.75-2.1.43-.53.22-.27a1.72,1.72,0,0,0,.29-.42,1.82,1.82,0,0,0,0-.86c0-.24-.08-.48-.13-.71a43.75,43.75,0,0,0-1.73-5.26c-.68-1.71-1.37-3.41-2.14-5.08.58,1.74,1.17,3.48,1.71,5.23a50.12,50.12,0,0,1,1.45,5.26,3.14,3.14,0,0,1,.07,1.14c.06-.1,0,.06-.12.13l-.23.26-.46.51-1.82,2.07L268,172.77l-.26.29.24.33c.74,1,1.44,2,2.09,3.09a10.94,10.94,0,0,1,1.5,3.21,1.5,1.5,0,0,1,0,.3.19.19,0,0,0,0,.08s-.07.11-.1.16c-.15.23-.36.49-.54.73l-1.16,1.49c-.77,1-1.54,2-2.3,3-1.47,2-2.89,4.15-4.16,6.35a30.8,30.8,0,0,0-1.68,3.41A12.94,12.94,0,0,0,260.65,198.87Z" style="opacity:0.2"></path><path d="M330,83.73c.41-7.3-1.6-12.35-1.65-13.88-.07-2-.92-2.59-.92-2.59a2.1,2.1,0,0,0-1.49-2.08c-.25-1.72-1.27-1.69-4.54-2.6S314.3,60.46,313.1,61s-1.77,1.78-1.8,4a3.53,3.53,0,0,0-3.26.55c-1.3.81-1.87,1.52-1.09,3.83s2.37,3.81,2.53,5.83a9.19,9.19,0,0,0,3.14,6.1,6.77,6.77,0,0,1,2.56,2.4c.49,1,.44,2,.11,4.78-.28,2.34-4.73,25.18-4.73,25.18L328.18,118s1-18.69,1.44-28.38C329.73,87.32,329.92,84.73,330,83.73Z" style="fill:#b16668"></path><path d="M322.79,63.76c-1.37-.35-2.76-.6-4.14-.89-.73-.15-1.45-.31-2.18-.45a4.19,4.19,0,0,0-2-.05,3.29,3.29,0,0,0-2,2.23,19.82,19.82,0,0,0-.94,3.79,2.81,2.81,0,0,0,.16,1.92,1.31,1.31,0,0,0,1.32.66c.27,0,0-.43-.2-.4-.74.12-1-.76-.94-1.32a10.83,10.83,0,0,1,.29-1.78,14.21,14.21,0,0,1,.9-3,2.84,2.84,0,0,1,2-1.81,5.46,5.46,0,0,1,1.88.17l1.79.33c1.33.24,2.67.54,4,.72C322.85,63.91,322.85,63.77,322.79,63.76Z" style="fill:#9a4a4d"></path><path d="M322.5,65a40.38,40.38,0,0,0-4.06-.92,19.64,19.64,0,0,0-2-.29,2.09,2.09,0,0,0-1.45.4,5.19,5.19,0,0,0-1.47,3c-.16.66-.28,1.34-.39,2a9.85,9.85,0,0,0-.23,2c.1,1.32,1.55,1.91,2.72,1.87.31,0,.12-.43-.13-.42a2.65,2.65,0,0,1-1.74-.52,1.62,1.62,0,0,1-.37-1.65,24.48,24.48,0,0,1,.64-3.5,4.47,4.47,0,0,1,1.4-2.51,2.07,2.07,0,0,1,1.52-.28c.56,0,1.13.12,1.69.2a39.33,39.33,0,0,1,3.89.77C322.58,65.13,322.57,65,322.5,65Z" style="fill:#9a4a4d"></path><path d="M319.05,66.45a3.9,3.9,0,0,0-1.63.16,2.05,2.05,0,0,0-1,.94,9.18,9.18,0,0,0-.86,3.57,15.29,15.29,0,0,0-.11,1.91,1.59,1.59,0,0,0,.65,1.27,7.29,7.29,0,0,0,3.81,1.22c.28,0,.14-.38-.08-.39a7.74,7.74,0,0,1-2.13-.42c-.54-.2-1.46-.5-1.74-1a2.28,2.28,0,0,1-.09-1.13c0-.36,0-.71.07-1.07a15.56,15.56,0,0,1,.29-2,5.34,5.34,0,0,1,.68-1.86,2,2,0,0,1,1.75-.77c1.51,0,3,.2,4.51.27,0,0,0,0,0,0A15.2,15.2,0,0,0,319.05,66.45Z" style="fill:#9a4a4d"></path><path d="M321,72.87a3.45,3.45,0,0,0-.42-.51.59.59,0,0,0,0-.23,2.09,2.09,0,0,0,0-.25,2.44,2.44,0,0,0-.09-.47,3.61,3.61,0,0,0-.36-.89c0-.06-.07,0-.06.08a2.46,2.46,0,0,1,.24.84c0,.13,0,.27,0,.41v.26l0,0a2.44,2.44,0,0,0-.9-.51c-.09,0-.06.14,0,.17a4.54,4.54,0,0,1,.69.45,3,3,0,0,1,.6.72,2.83,2.83,0,0,1,.34.75,1.58,1.58,0,0,1,.05,1c-.08.21.34.45.42.21a1.65,1.65,0,0,0,0-1A3.43,3.43,0,0,0,321,72.87Z" style="fill:#9a4a4d"></path><path d="M323.14,74.53a3.83,3.83,0,0,0-.66-.08,3.77,3.77,0,0,0-.67,0,5.32,5.32,0,0,0-1.41.36,6,6,0,0,0-2.2,1.56,5.42,5.42,0,0,0-1.13,5.24c0,.08.1,0,.09,0a6.55,6.55,0,0,1,1.39-4.84,5.94,5.94,0,0,1,2-1.53,8.07,8.07,0,0,1,1.25-.44,5.35,5.35,0,0,1,.55-.11l.78-.1S323.17,74.54,323.14,74.53Z" style="fill:#9a4a4d"></path><path d="M311.71,69.94A2.49,2.49,0,0,1,310,69.8c-.56-.24-1.05-.61-1.58-.89,0,0,0,0,0,.06.87.92,2.18,1.77,3.5,1.36C312.15,70.25,311.92,69.87,311.71,69.94Z" style="fill:#9a4a4d"></path><path d="M312.19,66.46a1.91,1.91,0,0,0-.44-.93c-.08-.1-.14-.09-.1,0a2.37,2.37,0,0,1,.11.46,11.33,11.33,0,0,1,.15,1.29.06.06,0,0,0,.09,0c.05,0,.05-.07.11-.07s.1-.14.11-.2a.78.78,0,0,0,0-.22A2.32,2.32,0,0,0,312.19,66.46Z" style="fill:#9a4a4d"></path><path d="M312.74,70.67a.24.24,0,0,0-.29-.1,3.39,3.39,0,0,0-1.37,1,3,3,0,0,0-.43.7,3.12,3.12,0,0,0-.15.39,5.32,5.32,0,0,0-.06.56c0,.05.06.12.08.05a2,2,0,0,1,.21-.41c.06-.12.11-.24.18-.36a4.6,4.6,0,0,1,.49-.67,3.66,3.66,0,0,1,1.32-.92C312.83,70.89,312.79,70.74,312.74,70.67Z" style="fill:#9a4a4d"></path><path d="M313.83,94.6l.83-5.28a14.31,14.31,0,0,0,6.88,4.55,12.22,12.22,0,0,0,8.14-.05l-.34,5.43a20.74,20.74,0,0,1-9.66-.77C315.13,96.77,313.83,94.6,313.83,94.6Z" style="fill:#fafafa"></path><path d="M285.47,147.51c4.74-5.86,8.69-7.79,11.09-10.77,3.91-4.86,11.95-18,11.95-18L314,91.47c1.42,5,12.58,8.1,15.66,5.59,0,0-.4,9.59-1,26.76-.22,5.91-.87,7-8.51,18.24-3.61,5.32-7.23,11.05-13,19.94-4.18,6.42-8,12.4-10.13,18.76-.56,2.7-6.13,2.64-9.94-6C282.86,165.16,284.68,150.84,285.47,147.51Z" style="fill:#FF0000"></path></g></g></g></svg>
